<svg width="20" height="20" fill="none" xmlns="http://www.w3.org/2000/svg"><g clip-path="url(#clip0)" fill="#93939F"><path d="M7.706 17.823h4.588c.778 0 .631-.835.631-1.813v-.592h1.758c.324 0 .611-.029.611-.355 0-.327-.274-.416-.598-.416H5.321c-.323 0-.615.06-.615.386 0 .327.278.385.602.385h1.758v.592c0 .978-.125 1.813.64 1.813zM4.22 8.735a.588.588 0 01.581-.676H9.06c.325 0 .588.263.588.588v4.706a.588.588 0 01-.588.588H5.51a.588.588 0 01-.582-.5L4.22 8.735zm11.733.002a.588.588 0 00-.581-.678H10.94a.588.588 0 00-.589.588v4.706c0 .325.264.588.589.588h3.7c.29 0 .537-.211.582-.498l.73-4.706zm.078-1.972c.031.324-.235.588-.56.588H4.53a.548.548 0 01-.56-.588c.296-3.07 2.883-4.412 6.032-4.412 3.147 0 5.735 1.342 6.03 4.412z"/><path d="M2.883 7c0-.195.158-.353.353-.353h13.53a.353.353 0 010 .706H3.235A.353.353 0 012.883 7zm8.352-5.265s-.54-.088-1.206-.088c-.666 0-1.206.088-1.206.088a1.206 1.206 0 112.412 0zM9.647 18.529h.706v1.529h-.706z"/></g><defs><clipPath id="clip0"><path fill="#fff" d="M0 0h20v20H0z"/></clipPath></defs></svg>