<svg width="20" height="18" fill="none" xmlns="http://www.w3.org/2000/svg"><path d="M1.53 12.187c.346 0 .626-.28.626-.626 0-.345-.28-1.29-.625-1.29-.346 0-.626.945-.626 1.29 0 .346.28.626.626.626z" fill="#93939F"/><path d="M20 13.435h-1.088a.464.464 0 00.002-.049v-.556a.445.445 0 00-.89 0v.556c0 .017.002.033.003.05H16.94a1.53 1.53 0 001.033 1.447 1.099 1.099 0 01-2.173-.216V12.77a1.99 1.99 0 00-2.718-1.848l-2.636-5.407V2.29A1.531 1.531 0 0011.53.825H8.47c0 .69.457 1.274 1.085 1.465v3.224l-2.677 5.393a1.99 1.99 0 00-2.676 1.864v1.895a1.099 1.099 0 01-2.174.217 1.53 1.53 0 001.033-1.447H1.973a.45.45 0 00.002-.05v-.556a.445.445 0 00-.89 0v.556a.45.45 0 00.003.05H0c0 .707.48 1.302 1.132 1.477.122.98.96 1.74 1.972 1.74a1.99 1.99 0 001.987-1.986V12.77a1.099 1.099 0 012.028-.58H6.04a3.96 3.96 0 003.515 3.934v.605a.445.445 0 00.89 0v-.605a3.96 3.96 0 003.515-3.935h-1.08a1.098 1.098 0 012.028.581v1.896a1.99 1.99 0 001.987 1.987 1.99 1.99 0 001.972-1.74A1.531 1.531 0 0020 13.434zM7.626 11.401l1.93-3.886v4.675H8.088a1.988 1.988 0 00-.463-.79zm2.819.789V7.547l1.896 3.889c-.195.214-.343.47-.43.754h-1.466z" fill="#93939F"/><path d="M18.47 12.187c.344 0 .624-.28.624-.626 0-.345-.28-1.29-.625-1.29s-.625.945-.625 1.29c0 .346.28.626.625.626z" fill="#93939F"/></svg>