<svg width="20" height="20" viewBox="0 0 20 20" fill="none" xmlns="http://www.w3.org/2000/svg">
<path d="M11.302 10.1823V8.31104C11.302 7.74808 10.9447 7.26865 10.4445 7.08697V0.444568C10.4445 0.19905 10.2455 0 9.99995 0C9.75443 0 9.55538 0.19905 9.55538 0.444568V7.08697C9.05519 7.26865 8.69792 7.74808 8.69792 8.31104V10.1823C5.35141 10.7747 2.76918 13.6087 2.56445 17.0722H17.4354C17.2307 13.6087 14.6485 10.7747 11.302 10.1823Z" fill="#93939F"/>
<path d="M9.99912 19.9999C11.5544 19.9999 12.923 19.1856 13.7014 17.9612H6.29688C7.07521 19.1856 8.44382 19.9999 9.99912 19.9999Z" fill="#93939F"/>
</svg>
