<svg width="20" height="20" viewBox="0 0 20 20" fill="none" xmlns="http://www.w3.org/2000/svg">
<path d="M13.5731 5.6341C13.6595 5.52591 13.6861 5.37389 13.648 5.20604L12.6449 0.782454C12.5504 0.365657 12.0926 4.21944e-05 11.6652 4.21944e-05L8.33473 0C7.90735 0 7.44953 0.365615 7.35502 0.782412L6.35189 5.20612C6.31383 5.37397 6.34045 5.52595 6.42678 5.63414C6.51315 5.74228 6.65552 5.80186 6.82767 5.80186H13.1722C13.3443 5.80186 13.4867 5.74228 13.5731 5.6341Z" fill="#93939F"/>
<path d="M11.457 19.1561H10.4224V6.64575H9.5785V19.1561H8.54402C8.31098 19.1561 8.12207 19.3451 8.12207 19.5781C8.12207 19.8111 8.31098 20 8.54402 20H11.457C11.69 20 11.879 19.8111 11.879 19.5781C11.879 19.3451 11.69 19.1561 11.457 19.1561Z" fill="#93939F"/>
</svg>
