<svg width="20" height="20" fill="none" xmlns="http://www.w3.org/2000/svg"><path d="M17.099 11.685c.128-.195.168-.469.111-.771l-1.492-7.965c-.14-.75-.822-1.409-1.458-1.409H9.306c-.636 0-1.317.658-1.457 1.409l-1.493 7.965c-.056.302-.017.576.112.77.128.195.34.303.596.303h9.438a.686.686 0 00.597-.302zM3.28 10.69a.457.457 0 10-.914 0h.915zm-.914 7.743a.457.457 0 10.915 0h-.915zm9.875-5.075V12.9h-.916v.458h.916zm-.633 2.492l-.066.452.066-.452zm-9.242-5.16v3.871h.915v-3.87h-.915zm0 3.871v3.872h.915V14.56h-.915zm.39.453l8.786 1.288.133-.905L2.89 14.11l-.133.905zm9.485.685v-2.341h-.916v2.34h.916zm-.7.603a.61.61 0 00.7-.603h-.916c0-.186.166-.329.35-.302l-.133.905z" fill="#93939F"/></svg>