<svg width="20" height="20" fill="none" xmlns="http://www.w3.org/2000/svg"><g clip-path="url(#clip0)"><path stroke="#93939F" stroke-width=".847" stroke-linecap="round" d="M7.018 18.83h7.338m-4.058 0l6.176-8.165a.141.141 0 00-.005-.177L10.756 3.8"/><path fill-rule="evenodd" clip-rule="evenodd" d="M11.862 3.144a.423.423 0 00-.155-.578L9.691 1.4a.423.423 0 00-.579.155L8.028 3.434a.453.453 0 01-.415.218 3.989 3.989 0 00-3.4 1.636c-.137.189-.066.45.136.566l3.086 1.782 3.086 1.782c.203.116.464.048.56-.166a3.989 3.989 0 00-.284-3.761.453.453 0 01-.019-.47l1.084-1.877z" fill="#93939F"/></g><defs><clipPath id="clip0"><path fill="#fff" d="M0 0h20v20H0z"/></clipPath></defs></svg>