<svg width="75" height="26" viewBox="0 0 75 26" fill="none" xmlns="http://www.w3.org/2000/svg">
<path d="M41.1767 12.6277H43.9646L40.1053 17.3118L44.6951 22.5968H41.5784L37.4391 17.7655V22.5968H34.9434V12.6277H37.4391V17.226L41.1767 12.6277Z" fill="#212123"/>
<path d="M51.3427 22.5961H48.7598L53.1138 12.627H55.7459L60.1368 22.5961H57.5662L54.4421 15.0764L53.4582 17.4645L51.3427 22.5961Z" fill="#212123"/>
<path d="M72.4128 12.627H74.7634V22.5961H72.6455L67.3507 16.4037V22.5961H65.0117V12.627H67.0947L72.4128 18.8438V12.627Z" fill="#212123"/>
<path d="M19.655 25.0876H18.6727H7.68936H7.04445H0L13.2455 0.166504L26.5605 25.0876H19.655ZM10.398 19.2656H15.9641L13.186 13.2711L10.398 19.2656Z" fill="#212123"/>
<path d="M40.0271 7.83491L40.0195 4.61434L38.4398 7.26748H37.8801L36.3081 4.68335V7.83491H35.1426V2.46729H36.1701L38.1791 5.80288L40.1575 2.46729H41.1773L41.1927 7.83491H40.0271Z" fill="#212123"/>
<path d="M46.3845 6.68471H43.8924L43.417 7.83491H42.1441L44.5365 2.46729H45.7634L48.1635 7.83491H46.8599L46.3845 6.68471ZM45.9935 5.74154L45.1423 3.6865L44.2911 5.74154H45.9935Z" fill="#212123"/>
<path d="M49.1038 2.46729H51.5422C52.125 2.46729 52.6388 2.57975 53.0835 2.80468C53.5334 3.0245 53.881 3.33633 54.1264 3.74018C54.3769 4.14403 54.5021 4.61434 54.5021 5.1511C54.5021 5.68786 54.3769 6.15817 54.1264 6.56202C53.881 6.96587 53.5334 7.28026 53.0835 7.50519C52.6388 7.725 52.125 7.83491 51.5422 7.83491H49.1038V2.46729ZM51.4809 6.81506C52.0177 6.81506 52.4445 6.66681 52.7615 6.37032C53.0835 6.06871 53.2445 5.6623 53.2445 5.1511C53.2445 4.6399 53.0835 4.23605 52.7615 3.93955C52.4445 3.63794 52.0177 3.48713 51.4809 3.48713H50.346V6.81506H51.4809Z" fill="#212123"/>
<path d="M59.9784 6.83807V7.83491H55.8223V2.46729H59.8787V3.46413H57.0569V4.62967H59.549V5.59584H57.0569V6.83807H59.9784Z" fill="#212123"/>
<path d="M67.8466 5.04375C68.1533 5.14087 68.3936 5.30446 68.5674 5.5345C68.7412 5.75943 68.8281 6.03804 68.8281 6.37032C68.8281 6.84062 68.6441 7.20358 68.276 7.45918C67.913 7.70967 67.3814 7.83491 66.681 7.83491H63.9052V2.46729H66.5277C67.182 2.46729 67.683 2.59253 68.0306 2.84302C68.3833 3.09351 68.5597 3.43346 68.5597 3.86287C68.5597 4.12358 68.4958 4.35618 68.368 4.56066C68.2453 4.76514 68.0715 4.92617 67.8466 5.04375ZM65.1398 3.40279V4.66801H66.3743C66.681 4.66801 66.9136 4.61434 67.0721 4.50698C67.2306 4.39963 67.3098 4.24116 67.3098 4.03156C67.3098 3.82197 67.2306 3.66606 67.0721 3.56381C66.9136 3.45646 66.681 3.40279 66.3743 3.40279H65.1398ZM66.589 6.89941C66.9162 6.89941 67.1616 6.84573 67.3252 6.73838C67.4939 6.63103 67.5782 6.46489 67.5782 6.23996C67.5782 5.79521 67.2485 5.57284 66.589 5.57284H65.1398V6.89941H66.589Z" fill="#212123"/>
<path d="M72.6161 5.93324V7.83491H71.3739V5.9179L69.2958 2.46729H70.6147L72.0487 4.85204L73.4826 2.46729H74.7018L72.6161 5.93324Z" fill="#212123"/>
</svg>
