<svg width="18" height="18" fill="none" xmlns="http://www.w3.org/2000/svg"><path fill-rule="evenodd" clip-rule="evenodd" d="M4.5 14.183a1.233 1.233 0 100 2.467 1.233 1.233 0 000-2.467zm-2.433 1.234a2.433 2.433 0 114.867 0 2.433 2.433 0 01-4.867 0zm12.517-1.234a1.233 1.233 0 100 2.467 1.233 1.233 0 000-2.467zm-2.434 1.234a2.433 2.433 0 114.867 0 2.433 2.433 0 01-4.867 0z" fill="#212123"/><path fill-rule="evenodd" clip-rule="evenodd" d="M.234.75a.6.6 0 01.6-.6h1.834a.6.6 0 01.594.515l1.76 12.318h9.562a.6.6 0 010 1.2H4.501a.6.6 0 01-.594-.515L2.147 1.35H.834a.6.6 0 01-.6-.6z" fill="#212123"/><path fill-rule="evenodd" clip-rule="evenodd" d="M2.527 2.545a.6.6 0 01.637-.56l14.208.916a.6.6 0 01.556.684l-.917 6.417a.6.6 0 01-.594.515H4.5a.6.6 0 010-1.2h11.397l.751-5.26-13.561-.875a.6.6 0 01-.56-.637z" fill="#212123"/></svg>