<svg width="20" height="20" fill="none" xmlns="http://www.w3.org/2000/svg"><path fill-rule="evenodd" clip-rule="evenodd" d="M5 16a1 1 0 100 2 1 1 0 000-2zm-3 1a3 3 0 116 0 3 3 0 01-6 0zm14-1a1 1 0 100 2 1 1 0 000-2zm-3 1a3 3 0 116 0 3 3 0 01-6 0z" fill="#93939F"/><path fill-rule="evenodd" clip-rule="evenodd" d="M0 1a1 1 0 011-1h2a1 1 0 01.99.859L5.867 14H16a1 1 0 110 2H5a1 1 0 01-.99-.859L2.133 2H1a1 1 0 01-1-1z" fill="#93939F"/><path fill-rule="evenodd" clip-rule="evenodd" d="M2.502 2.936a1 1 0 011.062-.934l15.5 1a1 1 0 01.926 1.14l-1 7A1 1 0 0118 12H5a1 1 0 110-2h12.133l.724-5.072-14.421-.93a1 1 0 01-.934-1.062z" fill="#93939F"/></svg>