<svg width="24" height="24" viewBox="0 0 24 24" fill="none" xmlns="http://www.w3.org/2000/svg">
<path fill-rule="evenodd" clip-rule="evenodd" d="M7.52156 16.4783C7.13104 16.0878 7.13104 15.4547 7.52156 15.0641L15.064 7.52166C15.4546 7.13114 16.0877 7.13114 16.4782 7.52166C16.8688 7.91219 16.8688 8.54535 16.4782 8.93588L8.93577 16.4783C8.54525 16.8689 7.91208 16.8689 7.52156 16.4783Z" fill="#212123"/>
<path fill-rule="evenodd" clip-rule="evenodd" d="M7.5219 7.52156C7.91242 7.13104 8.54559 7.13104 8.93611 7.52156L16.4786 15.064C16.8691 15.4546 16.8691 16.0877 16.4786 16.4782C16.0881 16.8688 15.4549 16.8688 15.0644 16.4782L7.5219 8.93577C7.13137 8.54525 7.13137 7.91208 7.5219 7.52156Z" fill="#212123"/>
</svg>
