<svg width="22" height="22" fill="none" xmlns="http://www.w3.org/2000/svg"><path fill-rule="evenodd" clip-rule="evenodd" d="M12.834 1.875c.483 0 .875.392.875.875v3.667a.042.042 0 00.042.041h3.666a.875.875 0 110 1.75h-3.666a1.792 1.792 0 01-1.792-1.791V2.75c0-.483.392-.875.875-.875z" fill="#fff"/><path fill-rule="evenodd" clip-rule="evenodd" d="M6.417 3.625a.958.958 0 00-.958.958v12.834a.958.958 0 00.958.958h9.167a.958.958 0 00.958-.958V7.696l-4.07-4.071H6.417zm-1.915-.957a2.708 2.708 0 011.915-.793h6.417c.232 0 .455.092.619.256l4.583 4.584a.875.875 0 01.256.618v10.084a2.708 2.708 0 01-2.708 2.708H6.417a2.708 2.708 0 01-2.708-2.708V4.583c0-.718.285-1.407.793-1.915z" fill="#fff"/><path fill-rule="evenodd" clip-rule="evenodd" d="M11 9.208c.483 0 .875.392.875.875v5.5a.875.875 0 01-1.75 0v-5.5c0-.483.392-.875.875-.875z" fill="#fff"/><path fill-rule="evenodd" clip-rule="evenodd" d="M7.631 12.214a.875.875 0 011.238 0L11 14.346l2.131-2.132a.875.875 0 111.238 1.238l-2.75 2.75a.875.875 0 01-1.238 0l-2.75-2.75a.875.875 0 010-1.238z" fill="#fff"/></svg>