<svg width="22" height="22" viewBox="0 0 22 22" fill="none" xmlns="http://www.w3.org/2000/svg">
<path fill-rule="evenodd" clip-rule="evenodd" d="M12.2822 3.3219C11.6701 3.06835 10.9965 3.002 10.3467 3.13127C9.69683 3.26053 9.09992 3.57958 8.63141 4.04809C8.1629 4.51659 7.84385 5.11351 7.71459 5.76334C7.58533 6.41318 7.65167 7.08675 7.90522 7.69889C8.15877 8.31102 8.58815 8.83422 9.13906 9.20232C9.51993 9.45681 9.94707 9.62927 10.3934 9.71148L10.4002 10.6709L2.77299 15.5246C2.52604 15.6815 2.33671 15.9144 2.23345 16.1882C2.13018 16.462 2.11856 16.7619 2.20032 17.0429C2.28208 17.3239 2.45282 17.5707 2.68687 17.7464C2.92091 17.922 3.20562 18.0169 3.49822 18.0169H18.5022C18.7948 18.0169 19.0795 17.922 19.3136 17.7464C19.5476 17.5707 19.7184 17.3239 19.8001 17.0429C19.8819 16.7619 19.8703 16.462 19.767 16.1882C19.6637 15.9144 19.4744 15.6815 19.2274 15.5246L16.0176 13.4819L11.6002 10.6709V9.1669C11.6002 8.83553 11.3316 8.5669 11.0002 8.5669C10.7906 8.5669 10.5833 8.53626 10.3846 8.47689C10.1803 8.41582 9.98502 8.32435 9.80574 8.20456C9.45218 7.96831 9.17661 7.63253 9.01388 7.23967C8.85115 6.8468 8.80857 6.41451 8.89153 5.99745C8.97449 5.58039 9.17926 5.1973 9.47994 4.89662C9.72557 4.65098 10.0262 4.46935 10.3554 4.36586C10.4292 4.34266 10.5044 4.32339 10.5808 4.30821C10.7093 4.28265 10.8392 4.26901 10.969 4.26712C11.2605 4.26289 11.5512 4.31796 11.823 4.43056C12.2158 4.59328 12.5516 4.86885 12.7879 5.22242C13.0241 5.57599 13.1502 5.99167 13.1502 6.4169C13.1502 6.74827 13.4188 7.0169 13.7502 7.0169C14.0816 7.0169 14.3502 6.74827 14.3502 6.4169C14.3502 5.75433 14.1537 5.10664 13.7856 4.55574C13.4175 4.00483 12.8943 3.57545 12.2822 3.3219ZM3.41701 16.5371C3.3893 16.5547 3.36783 16.581 3.35624 16.6117C3.34466 16.6424 3.34335 16.6761 3.35253 16.7076C3.3617 16.7391 3.38086 16.7668 3.40712 16.7865C3.43338 16.8062 3.46533 16.8169 3.49816 16.8169H17.1787H17.8448H18.5022C18.5351 16.8169 18.5671 16.8062 18.5933 16.7865C18.6196 16.7668 18.6387 16.7391 18.6479 16.7076C18.6571 16.6761 18.6558 16.6424 18.6442 16.6117C18.6326 16.581 18.6114 16.5549 18.5837 16.5372L17.214 15.6657L12.837 12.8803L11.0002 11.7114L3.41701 16.5371Z" fill="#212123"/>
</svg>
