<svg width="18" height="18" fill="none" xmlns="http://www.w3.org/2000/svg"><path fill-rule="evenodd" clip-rule="evenodd" d="M9 5c-.226 0-.45.019-.672.053a.5.5 0 11-.156-.987C8.442 4.023 8.72 4 9 4c1.51 0 2.88.664 3.986 1.46 1.109.798 1.993 1.758 2.54 2.423.54.655.54 1.58 0 2.234-.244.297-.554.651-.92 1.022a.5.5 0 01-.712-.701c.341-.347.632-.678.861-.957a.745.745 0 000-.962C14.237 7.89 13.415 7 12.401 6.27 11.385 5.54 10.218 5 9 5zM5.79 6.137c-1.1.751-1.995 1.713-2.545 2.382a.745.745 0 000 .962c.517.629 1.34 1.519 2.353 2.248C6.616 12.46 7.783 13 9 13c1.051 0 2.066-.402 2.982-.987l.538.843C11.508 13.502 10.306 14 9 14c-1.51 0-2.88-.664-3.986-1.46-1.109-.798-1.994-1.758-2.541-2.423a1.745 1.745 0 010-2.234c.581-.706 1.544-1.747 2.753-2.572l.564.826z" fill="#93939F"/><path fill-rule="evenodd" clip-rule="evenodd" d="M1.896 1.896a.5.5 0 01.708 0l13.5 13.5a.5.5 0 01-.708.708l-13.5-13.5a.5.5 0 010-.708zM6.697 9.1a.5.5 0 01.612.353 1.75 1.75 0 001.238 1.237.5.5 0 01-.26.966 2.75 2.75 0 01-1.944-1.944.5.5 0 01.354-.613z" fill="#93939F"/></svg>