<svg width="16" height="16" fill="none" xmlns="http://www.w3.org/2000/svg"><path fill-rule="evenodd" clip-rule="evenodd" d="M1.4 4.667A3.267 3.267 0 014.667 1.4h6.667A3.267 3.267 0 0114.6 4.667v6.666a3.267 3.267 0 01-3.266 3.267H4.667A3.267 3.267 0 011.4 11.333V4.667zM4.667 2.6A2.067 2.067 0 002.6 4.667v6.666c0 1.142.926 2.067 2.067 2.067h6.667a2.067 2.067 0 002.066-2.067V4.667A2.067 2.067 0 0011.334 2.6H4.667z" fill="#EC863D"/><path fill-rule="evenodd" clip-rule="evenodd" d="M6 5.267a.733.733 0 100 1.466.733.733 0 000-1.466zM4.066 6a1.933 1.933 0 113.867 0 1.933 1.933 0 01-3.867 0zm6.594 3.332a.733.733 0 00-1.042.105L9.17 9.08l.447.358-1.066 1.333A1.91 1.91 0 016 11.166a.71.71 0 00-.95.147l-1.916 2.395-.937-.75 1.916-2.394a1.91 1.91 0 012.552-.396.71.71 0 00.95-.148L8.68 8.687l.468.375-.468-.375a1.933 1.933 0 012.747-.277l2.955 2.463-.768.921-2.955-2.462.384-.461-.384.46z" fill="#EC863D"/></svg>