<svg width="18" height="18" viewBox="0 0 18 18" fill="none" xmlns="http://www.w3.org/2000/svg">
<path fill-rule="evenodd" clip-rule="evenodd" d="M8.125 5C8.125 4.51675 8.51675 4.125 9 4.125H9.01C9.49325 4.125 9.885 4.51675 9.885 5C9.885 5.48325 9.49325 5.875 9.01 5.875H9C8.51675 5.875 8.125 5.48325 8.125 5Z" fill="#93939F"/>
<path fill-rule="evenodd" clip-rule="evenodd" d="M7.125 9C7.125 8.51675 7.51675 8.125 8 8.125H9C9.48325 8.125 9.875 8.51675 9.875 9V12.125H10C10.4832 12.125 10.875 12.5168 10.875 13C10.875 13.4832 10.4832 13.875 10 13.875H9C8.51675 13.875 8.125 13.4832 8.125 13V9.875H8C7.51675 9.875 7.125 9.48325 7.125 9Z" fill="#93939F"/>
</svg>
