<svg width="12" height="14" fill="none" xmlns="http://www.w3.org/2000/svg"><path fill-rule="evenodd" clip-rule="evenodd" d="M6 1.6c-1.068 0-2.1.446-2.865 1.251A4.442 4.442 0 001.933 5.91c0 1.68 1.039 3.31 2.18 4.576A15.486 15.486 0 006 12.248a15.486 15.486 0 001.887-1.764c1.141-1.266 2.18-2.896 2.18-4.575a4.442 4.442 0 00-1.202-3.058A3.953 3.953 0 006 1.6zM6 13c-.344.491-.345.491-.345.49h-.001l-.004-.003-.012-.008-.044-.032-.157-.117a16.695 16.695 0 01-2.216-2.042C2.028 9.964.733 8.048.733 5.909c0-1.452.548-2.85 1.532-3.885A5.153 5.153 0 016 .4c1.407 0 2.75.588 3.735 1.624a5.641 5.641 0 011.532 3.885c0 2.139-1.295 4.055-2.488 5.379a16.696 16.696 0 01-2.373 2.16l-.044.03-.012.01-.004.002h-.001L6 13zm0 0l.345.491a.6.6 0 01-.69 0L6 13z" fill="#036A9B"/><path fill-rule="evenodd" clip-rule="evenodd" d="M6 4.266a1.4 1.4 0 100 2.8 1.4 1.4 0 000-2.8zm-2.6 1.4a2.6 2.6 0 115.2 0 2.6 2.6 0 01-5.2 0z" fill="#036A9B"/></svg>