<svg width="16" height="16" fill="none" xmlns="http://www.w3.org/2000/svg"><path fill-rule="evenodd" clip-rule="evenodd" d="M3.333 3.833a.833.833 0 00-.833.834v6.666c0 .46.373.834.833.834h9.334c.46 0 .833-.373.833-.834V4.667a.833.833 0 00-.833-.834H3.333zM1.5 4.667c0-1.013.82-1.834 1.833-1.834h9.334c1.012 0 1.833.821 1.833 1.834v6.666c0 1.013-.82 1.834-1.833 1.834H3.333A1.833 1.833 0 011.5 11.333V4.667z" fill="#93939F"/><path fill-rule="evenodd" clip-rule="evenodd" d="M1.584 4.39a.5.5 0 01.693-.14L8 8.067l5.723-3.815a.5.5 0 01.554.832l-6 4a.5.5 0 01-.554 0l-6-4a.5.5 0 01-.139-.694z" fill="#93939F"/></svg>