<svg width="14" height="14" fill="none" xmlns="http://www.w3.org/2000/svg"><path fill-rule="evenodd" clip-rule="evenodd" d="M2.917 3.125a.667.667 0 00-.667.653 8.833 8.833 0 008.263 8.263.666.666 0 00.654-.666V9.38L8.96 8.497l-.656 1.094a.5.5 0 01-.65.19A6.917 6.917 0 014.51 6.639a.5.5 0 01.191-.65l1.093-.656-.883-2.207H2.917zm-1.179-.512a1.667 1.667 0 011.179-.488H5.25a.5.5 0 01.464.314l1.167 2.917a.5.5 0 01-.207.614l-1.048.63a5.917 5.917 0 002.066 2.066l.63-1.048a.5.5 0 01.614-.207l2.916 1.166a.5.5 0 01.315.465v2.333a1.666 1.666 0 01-1.697 1.666 9.833 9.833 0 01-9.22-9.25c0-.441.176-.865.488-1.178z" fill="#93939F"/></svg>