<svg width="17" height="17" viewBox="0 0 17 17" fill="none" xmlns="http://www.w3.org/2000/svg">
<path fill-rule="evenodd" clip-rule="evenodd" d="M1.97998 8.31372C1.97998 7.76144 2.4277 7.31372 2.97998 7.31372L13.6466 7.31372C14.1989 7.31372 14.6466 7.76144 14.6466 8.31372C14.6466 8.86601 14.1989 9.31372 13.6466 9.31372H2.97998C2.4277 9.31372 1.97998 8.86601 1.97998 8.31372Z" fill="#212123"/>
<path fill-rule="evenodd" clip-rule="evenodd" d="M8.31348 1.98047C8.86576 1.98047 9.31348 2.42818 9.31348 2.98047L9.31348 13.6471C9.31348 14.1994 8.86576 14.6471 8.31348 14.6471C7.76119 14.6471 7.31348 14.1994 7.31348 13.6471L7.31348 2.98047C7.31348 2.42818 7.76119 1.98047 8.31348 1.98047Z" fill="#212123"/>
</svg>
