<svg width="22" height="22" fill="none" xmlns="http://www.w3.org/2000/svg"><path fill-rule="evenodd" clip-rule="evenodd" d="M2.668 8.168a2.708 2.708 0 011.915-.793h12.834a2.708 2.708 0 012.708 2.708v3.667a2.708 2.708 0 01-2.708 2.708h-1.834a.875.875 0 110-1.75h1.834a.958.958 0 00.958-.958v-3.667a.958.958 0 00-.958-.958H4.583a.958.958 0 00-.958.958v3.667a.958.958 0 00.958.958h1.834a.875.875 0 010 1.75H4.583a2.708 2.708 0 01-2.708-2.708v-3.667c0-.718.285-1.407.793-1.915z" fill="#fff"/><path fill-rule="evenodd" clip-rule="evenodd" d="M6.334 2.668a2.708 2.708 0 011.915-.793h5.5a2.708 2.708 0 012.709 2.708V8.25a.875.875 0 01-1.75 0V4.583a.958.958 0 00-.959-.958h-5.5a.958.958 0 00-.958.958V8.25a.875.875 0 01-1.75 0V4.583c0-.718.285-1.407.793-1.915zM8.25 12.792a.958.958 0 00-.959.958v3.667c0 .529.43.958.958.958h5.5c.53 0 .959-.429.959-.958V13.75c0-.53-.43-.958-.959-.958h-5.5zm-2.709.958a2.708 2.708 0 012.708-2.708h5.5a2.708 2.708 0 012.709 2.708v3.667a2.708 2.708 0 01-2.709 2.708h-5.5a2.708 2.708 0 01-2.708-2.708V13.75z" fill="#fff"/></svg>