<svg width="16" height="16" viewBox="0 0 16 16" fill="none" xmlns="http://www.w3.org/2000/svg">
<path fill-rule="evenodd" clip-rule="evenodd" d="M4.56651 1.4465C5.04663 1.57515 5.33156 2.06865 5.20291 2.54877L5.03238 3.18519C7.99064 1.58155 11.7057 2.61804 13.3985 5.55002C15.1198 8.53138 14.0983 12.3436 11.1169 14.0649C8.13555 15.7862 4.32331 14.7647 2.60202 11.7834C2.35349 11.3529 2.50098 10.8025 2.93144 10.5539C3.3619 10.3054 3.91234 10.4529 4.16086 10.8834C5.3851 13.0038 8.09648 13.7303 10.2169 12.5061C12.3373 11.2818 13.0639 8.57045 11.8396 6.45002C10.6449 4.3807 8.03386 3.63891 5.93792 4.74217L6.56651 4.9106C7.04663 5.03925 7.33156 5.53275 7.20291 6.01287C7.07426 6.49299 6.58076 6.77791 6.10064 6.64927L3.36859 5.91722C2.88847 5.78857 2.60354 5.29507 2.73219 4.81495L3.46424 2.0829C3.59289 1.60278 4.08639 1.31785 4.56651 1.4465Z" fill="#EC863D"/>
</svg>
