<svg width="20" height="20" viewBox="0 0 20 20" fill="none" xmlns="http://www.w3.org/2000/svg">
<path fill-rule="evenodd" clip-rule="evenodd" d="M14.4274 2.31527C14.1073 2.40104 13.9173 2.73004 14.0031 3.05012L14.5433 5.06601L13.6327 4.54027C10.1571 2.53364 5.71285 3.72447 3.70621 7.20006C1.69958 10.6757 2.8904 15.1199 6.366 17.1265C9.84159 19.1331 14.2858 17.9423 16.2924 14.4667C16.4581 14.1798 16.3598 13.8128 16.0728 13.6471C15.7859 13.4814 15.4189 13.5798 15.2532 13.8667C13.578 16.7684 9.86764 17.7625 6.966 16.0873C4.06435 14.412 3.07018 10.7017 4.74544 7.80006C6.42071 4.89842 10.131 3.90424 13.0327 5.57951L13.9433 6.10524L11.9274 6.6454C11.6073 6.73116 11.4173 7.06017 11.5031 7.38025C11.5889 7.70032 11.9179 7.89027 12.238 7.80451L15.653 6.88945C15.8067 6.84826 15.9378 6.7477 16.0173 6.60989C16.0969 6.47208 16.1185 6.30831 16.0773 6.1546L15.1622 2.73954C15.0765 2.41946 14.7475 2.22951 14.4274 2.31527Z" fill="#212123"/>
</svg>
