<svg width="14" height="14" viewBox="0 0 14 14" fill="none" xmlns="http://www.w3.org/2000/svg">
<path fill-rule="evenodd" clip-rule="evenodd" d="M6.33372 1.5999C3.71958 1.5999 1.60039 3.71909 1.60039 6.33324C1.60039 8.94738 3.71958 11.0666 6.33372 11.0666C8.94787 11.0666 11.0671 8.94738 11.0671 6.33324C11.0671 3.71909 8.94787 1.5999 6.33372 1.5999ZM0.400391 6.33324C0.400391 3.05635 3.05683 0.399902 6.33372 0.399902C9.61061 0.399902 12.2671 3.05635 12.2671 6.33324C12.2671 9.61013 9.61061 12.2666 6.33372 12.2666C3.05683 12.2666 0.400391 9.61013 0.400391 6.33324Z" fill="#212123"/>
<path fill-rule="evenodd" clip-rule="evenodd" d="M9.90913 9.90913C10.1434 9.67482 10.5233 9.67482 10.7577 9.90913L13.4243 12.5758C13.6586 12.8101 13.6586 13.19 13.4243 13.4243C13.19 13.6586 12.8101 13.6586 12.5758 13.4243L9.90913 10.7577C9.67482 10.5233 9.67482 10.1434 9.90913 9.90913Z" fill="#212123"/>
</svg>
