<svg width="18" height="18" fill="none" xmlns="http://www.w3.org/2000/svg"><path fill-rule="evenodd" clip-rule="evenodd" d="M5.657 6.352c-1.004.723-1.82 1.605-2.335 2.23a.645.645 0 000 .836c.515.625 1.331 1.507 2.335 2.23C6.665 12.372 7.812 12.9 9 12.9c1.188 0 2.335-.527 3.344-1.253 1.003-.722 1.82-1.604 2.334-2.23a.645.645 0 000-.835c-.514-.625-1.33-1.507-2.335-2.23C11.335 5.627 10.189 5.1 9 5.1c-1.188 0-2.335.527-3.343 1.252zm-.7-.974C6.07 4.577 7.461 3.9 9 3.9c1.539 0 2.93.677 4.044 1.478 1.12.805 2.01 1.773 2.56 2.441.57.692.57 1.67 0 2.362-.55.668-1.44 1.636-2.56 2.44C11.93 13.423 10.54 14.1 9 14.1c-1.538 0-2.93-.677-4.044-1.479-1.119-.804-2.01-1.772-2.56-2.44a1.845 1.845 0 010-2.362c.55-.668 1.441-1.636 2.56-2.44z" fill="#93939F"/><path fill-rule="evenodd" clip-rule="evenodd" d="M9 7.35a1.65 1.65 0 100 3.3 1.65 1.65 0 000-3.3zM6.15 9a2.85 2.85 0 115.7 0 2.85 2.85 0 01-5.7 0z" fill="#93939F"/></svg>