<svg width="24" height="24" viewBox="0 0 24 24" fill="none" xmlns="http://www.w3.org/2000/svg">
<path fill-rule="evenodd" clip-rule="evenodd" d="M8.4116 6.01109C7.86251 5.95252 7.30724 6.00827 6.78075 6.17484C6.25427 6.3414 5.76797 6.61518 5.35249 6.97891C4.93701 7.34265 4.60134 7.78848 4.36663 8.28832C4.13191 8.78816 4.00323 9.33118 3.98869 9.8832C3.97415 10.4352 4.07406 10.9843 4.28214 11.4958C4.49022 12.0073 4.80195 12.4701 5.1977 12.8552L5.20402 12.8614L5.20399 12.8614L12.0003 19.5925L18.7966 12.8614C18.8173 12.8409 18.8387 12.8215 18.8607 12.8031C19.2244 12.4301 19.512 11.9893 19.7069 11.5055C19.9126 10.9949 20.0107 10.4473 19.995 9.89707C19.9794 9.34682 19.8503 8.80571 19.6159 8.30762C19.3815 7.80954 19.0468 7.36519 18.6328 7.0024C18.2188 6.63961 17.7343 6.36618 17.2098 6.19922C16.6852 6.03227 16.1319 5.97538 15.5843 6.03213C15.0368 6.08887 14.5068 6.25802 14.0276 6.52899C13.5485 6.79997 13.1304 7.16693 12.7996 7.60691C12.6101 7.85892 12.3128 8.00681 11.9975 8.00593C11.6822 8.00505 11.3858 7.85552 11.1977 7.60245C10.8683 7.15925 10.4507 6.78906 9.9712 6.51518C9.4917 6.2413 8.96069 6.06967 8.4116 6.01109ZM20.135 14.3508L12.704 21.7104C12.3143 22.0964 11.6863 22.0964 11.2966 21.7104L3.79959 14.2854C3.20753 13.7084 2.74109 13.0152 2.42956 12.2494C2.11744 11.4821 1.96757 10.6586 1.98939 9.83053C2.0112 9.00251 2.20422 8.18798 2.55629 7.43822C2.90836 6.68846 3.41186 6.01972 4.03508 5.47411C4.65831 4.9285 5.38775 4.51784 6.17747 4.26799C6.9672 4.01814 7.80011 3.93451 8.62374 4.02238C9.44738 4.11024 10.2439 4.36768 10.9632 4.7785C11.3372 4.99215 11.6861 5.24487 12.0044 5.53174C12.3224 5.24834 12.6704 4.99885 13.0432 4.78808C13.7619 4.38162 14.5568 4.12789 15.3782 4.04278C16.1995 3.95766 17.0295 4.04299 17.8164 4.29343C18.6032 4.54386 19.3299 4.954 19.9509 5.49819C20.5719 6.04238 21.0739 6.7089 21.4255 7.45603C21.7771 8.20315 21.9707 9.01481 21.9942 9.8402C22.0177 10.6656 21.8706 11.4869 21.562 12.2529C21.2534 13.0188 20.7901 13.7127 20.201 14.2914C20.1797 14.3123 20.1577 14.3321 20.135 14.3508Z" fill="#93939F"/>
</svg>
