<svg width="47" height="46" fill="none" xmlns="http://www.w3.org/2000/svg"><path fill-rule="evenodd" clip-rule="evenodd" d="M21.584 7.667c-7.41 0-13.417 6.006-13.417 13.416S14.174 34.5 21.584 34.5s13.417-6.007 13.417-13.417S28.994 7.667 21.584 7.667zM4.334 21.083c0-9.527 7.723-17.25 17.25-17.25 9.527 0 17.25 7.723 17.25 17.25 0 9.527-7.723 17.25-17.25 17.25-9.527 0-17.25-7.723-17.25-17.25z" fill="#fff"/><path fill-rule="evenodd" clip-rule="evenodd" d="M31.73 31.228a1.917 1.917 0 012.71 0l7.667 7.666a1.917 1.917 0 01-2.711 2.711l-7.667-7.666a1.917 1.917 0 010-2.711zM21.583 13.417c1.058 0 1.916.858 1.916 1.916v3.834h3.834a1.917 1.917 0 010 3.833h-3.834v3.833a1.917 1.917 0 11-3.833 0V23h-3.833a1.917 1.917 0 110-3.833h3.833v-3.834c0-1.058.858-1.916 1.917-1.916z" fill="#fff"/></svg>