<svg width="264" height="98" viewBox="0 0 264 98" fill="none" xmlns="http://www.w3.org/2000/svg">
<path d="M74.281 96H45.799V80.913H0.538V59.058L34.801 1.95299H74.281V56.097H85.138V80.913H74.281V96ZM45.799 56.097V26.487L28.033 56.097H45.799ZM155.038 90.783C148.646 95.389 140.938 97.692 131.914 97.692C122.89 97.692 115.135 95.389 108.649 90.783C102.257 86.083 97.5566 80.161 94.5486 73.017C91.6346 65.779 90.1776 57.789 90.1776 49.047C90.1776 35.417 93.7966 23.949 101.035 14.643C108.273 5.24299 118.566 0.542994 131.914 0.542994C145.262 0.542994 155.555 5.24299 162.793 14.643C170.031 23.949 173.65 35.417 173.65 49.047C173.65 57.789 172.146 65.779 169.138 73.017C166.224 80.161 161.524 86.083 155.038 90.783ZM118.801 49.047C118.801 64.745 123.172 72.594 131.914 72.594C140.656 72.594 145.027 64.745 145.027 49.047C145.027 33.443 140.656 25.641 131.914 25.641C123.172 25.641 118.801 33.443 118.801 49.047ZM252.459 96H223.977V80.913H178.716V59.058L212.979 1.95299H252.459V56.097H263.316V80.913H252.459V96ZM223.977 56.097V26.487L206.211 56.097H223.977Z" fill="url(#paint0_linear)"/>
<defs>
<linearGradient id="paint0_linear" x1="-54" y1="-18" x2="374" y2="123" gradientUnits="userSpaceOnUse">
<stop stop-color="#212123"/>
<stop offset="1" stop-color="#73582E"/>
</linearGradient>
</defs>
</svg>
