<svg width="200" height="60" fill="none" xmlns="http://www.w3.org/2000/svg"><path d="M63.458 23.116l2.189-7.612c.088-.282.22-.424.397-.424h1.592v17.887c0 .212-.088.33-.265.377-.177.024-.752.047-1.747.047l.067-6.41c.044-1.532.177-4.124.442-7.8-.774 3.11-1.304 5.09-1.592 5.962l-1.304 4.03c-.044.141-.132.212-.265.212h-.862l-1.282-4.242c-.221-.683-.73-2.64-1.57-5.915l-.022.023c.288 3.253.443 5.774.487 7.612v6.104c0 .212-.089.33-.265.377-.177.024-.73.047-1.658.047V15.505c0-.165.044-.283.088-.33a.477.477 0 01.288-.07h1.414l2.365 7.942.796 2.898c.287-1.249.53-2.191.707-2.828zm10.887 8.276a6.87 6.87 0 003.285-.837c.13.372.208.86.208 1.418 0 .395-.388.72-1.165 1-.776.279-1.707.419-2.793.419-.724 0-1.345-.094-1.863-.256-.517-.163-.983-.465-1.422-.884-.44-.419-.75-1.046-.983-1.86-.233-.814-.337-1.837-.337-3.07 0-1.558.13-2.837.414-3.86.285-1.023.673-1.79 1.216-2.279.543-.488 1.06-.814 1.578-1 .517-.163 1.164-.256 1.888-.256 2.432 0 3.648 1.372 3.648 4.14 0 1.372-.104 2.488-.31 3.348-1.553.28-3.57.419-6.028.419.052 1.349.285 2.255.698 2.767.363.558 1.035.79 1.966.79zm-.258-9.558c-1.449 0-2.277 1.465-2.432 4.395 1.733.023 3.052-.07 3.958-.279.103-.395.155-.907.155-1.558-.026-.953-.155-1.628-.362-2-.259-.372-.699-.558-1.32-.558zm13.222-1.907V32.84c0 .216-.069.336-.182.384-.159.024-.772.048-1.885.048V21.755H83.13c-.227 4.207-.59 7.189-1.09 8.968-.5 1.779-1.272 2.669-2.362 2.669-.75 0-1.113-.41-1.113-1.227 0-.072.023-.24.046-.48.863-.025 1.453-.746 1.748-2.212.296-1.443.568-4.424.84-8.92.023-.29.114-.457.273-.53.16-.072.659-.096 1.454-.096h4.383zm2.185 6.709c0-4.473 1.42-6.709 4.236-6.709 1.396 0 2.404.49 3.022 1.445.618.955.939 2.702.939 5.24 0 2.354-.344 4.054-1.053 5.149-.71 1.095-1.74 1.63-3.137 1.63-.71 0-1.282-.07-1.74-.232-.458-.163-.847-.466-1.214-.932-.366-.466-.618-1.142-.778-2.05-.183-.955-.275-2.12-.275-3.54zm2.244.047c0 1.374.069 2.422.229 3.168.16.722.343 1.211.595 1.42.23.21.573.327.985.327.618 0 1.076-.373 1.42-1.095.343-.722.503-2.027.503-3.937 0-1.957-.137-3.284-.412-3.937-.275-.652-.733-.978-1.374-.978-.618 0-1.099.373-1.442 1.095-.344.722-.504 2.027-.504 3.937zm16.882 4.325v4h-1.613a23.525 23.525 0 01-.227-2.024h-6.179a21.823 21.823 0 01-.227 2.023h-1.59v-4h.772c.41-.423.773-1.41 1.023-2.94.272-1.529.499-4.023.681-7.505.023-.305.091-.47.182-.54.114-.071.432-.095.954-.095h4.907v11.057h1.317v.024zm-3.294-9.293H103.1c-.272 4.988-.749 8.07-1.408 9.293h3.634v-9.293zm8.937 3.913L117 20.461c.127-.243.304-.388.481-.437.203-.048.71-.073 1.521-.073v13.052c0 .194-.101.316-.304.34-.203.024-.811.048-1.825.048v-5.846c0-.558.076-1.359.203-2.426.101-1.068.177-1.771.203-2.16-1.293 2.742-2.053 4.343-2.281 4.756l-2.712 5.143c-.127.242-.279.388-.481.437-.178.048-.71.072-1.546.072V20.315c0-.194.101-.315.329-.34.228-.024.811-.048 1.825-.048v6.162c0 .461-.076 1.31-.228 2.548-.102.8-.152 1.285-.178 1.48.026-.05.127-.267.305-.656.963-1.916 1.596-3.226 1.951-3.833zm11.498-5.701h2.659c.123 0 .221.024.295.097.074.072.099.12.099.168l.024.097V33.27c-1.083 0-1.698-.024-1.895-.048-.197-.024-.295-.169-.295-.41v-4.937h-1.182c-.911 0-1.526.746-1.821 2.24l-.64 2.818c-.025.193-.099.313-.197.385-.099.048-.345.072-.763.072-.443 0-.911-.023-1.403-.072l.763-3.396c.246-1.132.886-1.927 1.846-2.433-.665-.24-1.206-.674-1.674-1.3-.468-.627-.689-1.446-.689-2.481.049-2.505 1.649-3.782 4.873-3.782zm.887 6.142v-4.311c-.616-.024-1.083-.048-1.403-.048-.665 0-1.133.168-1.453.505-.32.338-.467.868-.467 1.614 0 1.542.64 2.288 1.895 2.288.271.024.763 0 1.428-.048z" fill="#003751"/><path d="M73.647 39.948c0-1.85.703-2.763 2.084-2.763.678 0 1.17.187 1.474.585.305.398.468 1.124.468 2.155 0 .96-.164 1.662-.515 2.13-.35.446-.866.68-1.544.68-.352 0-.632-.024-.867-.094a1.538 1.538 0 01-.608-.375c-.187-.187-.304-.468-.398-.843-.07-.421-.094-.89-.094-1.475zm1.1 0c0 .562.047 1.007.118 1.311.07.305.163.492.28.586.118.093.281.14.492.14.304 0 .538-.14.702-.445.164-.304.234-.843.234-1.615 0-.82-.07-1.358-.21-1.616-.14-.281-.352-.398-.68-.398-.304 0-.538.14-.701.445-.164.28-.234.82-.234 1.592zm7.537-2.67v5.152c0 .094-.047.14-.117.14-.093.024-.374.024-.89.024v-4.52h-1.614v4.356c0 .094-.047.14-.117.14-.094.024-.375.024-.89.024v-5.128c0-.094.047-.164.14-.187.094-.024.375-.024.89-.024h2.598v.024zm3.137.75v4.402c0 .094-.047.14-.117.14-.07.024-.375.024-.89.024v-4.59h-1.38c0-.35 0-.538.023-.632.023-.07.093-.117.187-.117h3.51c0 .351 0 .539-.023.633-.023.07-.093.117-.187.117h-1.123v.023zm5.828 1.499l1.217-2.038a.351.351 0 01.21-.163c.094-.024.305-.024.68-.024v5.175c0 .07-.047.117-.141.14-.094.024-.351.024-.796.024v-2.318c0-.21.023-.539.094-.96.046-.422.07-.703.093-.843a78.513 78.513 0 00-1.006 1.896l-1.194 2.038a.332.332 0 01-.21.187c-.094.023-.305.023-.68.023V37.49c0-.07.047-.117.141-.14.094-.023.375-.023.796-.023v2.435c0 .187-.023.515-.094 1.007-.046.304-.07.515-.07.585 0-.023.047-.117.14-.258.375-.819.656-1.334.82-1.568zm5.29 4.8v-6.744c.514-.28 1.123-.421 1.825-.421.655 0 1.17.163 1.521.491.352.328.515.913.515 1.733 0 2.225-.632 3.325-1.872 3.325-.421 0-.749-.093-.983-.304v2.224a1.95 1.95 0 01-.515.07c-.187 0-.304-.023-.374-.07a.405.405 0 01-.118-.304zm1.006-6.205v3.465a.793.793 0 00.679.351c.702 0 1.053-.82 1.053-2.458 0-.609-.07-1.03-.234-1.241-.164-.211-.398-.328-.75-.328-.257 0-.514.07-.748.21zm3.581 1.826c0-1.85.702-2.763 2.083-2.763.679 0 1.17.187 1.475.585.304.398.468 1.124.468 2.155 0 .96-.164 1.662-.515 2.13-.351.446-.866.68-1.545.68-.351 0-.632-.024-.866-.094a1.533 1.533 0 01-.608-.375c-.188-.187-.305-.468-.398-.843-.047-.421-.094-.89-.094-1.475zm1.1 0c0 .562.047 1.007.117 1.311.07.305.164.492.281.586.117.093.281.14.492.14.304 0 .538-.14.702-.445.164-.304.234-.843.234-1.615 0-.82-.07-1.358-.211-1.616-.14-.281-.351-.398-.679-.398-.304 0-.538.14-.702.445-.164.28-.234.82-.234 1.592zm4.283-.445h1.077c.281-.257.445-.538.445-.89 0-.468-.258-.702-.773-.702a1.66 1.66 0 00-1.053.375c-.14-.188-.234-.352-.234-.469 0-.14.117-.28.375-.421.257-.14.608-.211 1.053-.211 1.077 0 1.591.398 1.591 1.194 0 .515-.234.96-.678 1.312.632.257.936.725.936 1.358 0 .538-.164.96-.515 1.24-.351.282-.819.422-1.428.422-.398 0-.749-.047-1.03-.164s-.421-.257-.421-.445a.95.95 0 01.164-.515c.374.281.796.398 1.264.398.257 0 .491-.07.679-.21.187-.14.28-.375.28-.703 0-.585-.327-.866-.983-.866h-.491c-.164 0-.258-.07-.258-.235v-.468zm7.42-2.224v5.151c0 .094-.047.14-.117.14-.07.024-.374.024-.889.024V40.3h-1.639v2.131c0 .094-.047.14-.117.14-.093.024-.374.024-.889.024v-5.151c0-.094.047-.14.117-.14.07-.024.374-.024.913-.024v2.294h1.638v-2.13c0-.094.047-.14.141-.14.093 0 .351-.024.842-.024zm3.043 2.248l1.217-2.038a.35.35 0 01.211-.163c.093-.024.304-.024.678-.024v5.175c0 .07-.046.117-.14.14-.094.024-.351.024-.796.024v-2.318c0-.21.024-.539.094-.96.047-.422.07-.703.093-.843a80 80 0 00-1.006 1.896l-1.194 2.038a.4.4 0 01-.21.187c-.094.023-.305.023-.679.023V37.49c0-.07.047-.117.14-.14.094-.023.375-.023.796-.023v2.435c0 .187-.023.515-.094 1.007-.046.304-.07.515-.07.585 0-.023.047-.117.141-.258.398-.819.678-1.334.819-1.568zm7.677 2.271v2.248c0 .117-.047.164-.117.21-.07.024-.234.047-.492.047a10.024 10.024 0 01-.304-1.685h-3.394v-5.152c0-.094.047-.14.117-.14.094-.024.375-.024.89-.024v4.52h1.615v-4.356c0-.094.047-.14.117-.14.093-.024.374-.024.889-.024v4.52h.679v-.024zm4.19-3.325v.562c0 1.569-.024 2.67-.071 3.302-.468.234-1.053.35-1.732.35a5.44 5.44 0 01-.678-.046 1.182 1.182 0 01-.539-.21c-.187-.094-.327-.258-.421-.492-.094-.235-.14-.516-.14-.867 0-.679.163-1.124.444-1.382.305-.234.702-.374 1.217-.374.398 0 .703.047.913.14v-.843c0-.234-.07-.398-.187-.491-.117-.094-.328-.14-.585-.14-.632 0-1.194.07-1.662.233a.863.863 0 01-.14-.491c0-.14.046-.235.14-.281.117-.07.375-.14.726-.188.351-.07.749-.093 1.193-.093.539 0 .937.093 1.171.304.234.187.351.539.351 1.007zm-1.007 1.616a1.446 1.446 0 00-.585-.117c-.304 0-.538.07-.702.234-.164.14-.258.445-.258.866 0 .351.071.609.211.726.141.117.351.187.632.187s.515-.047.655-.164c.024-.257.047-.82.047-1.732z" fill="#93ADC5"/><path d="M136.516 45.765a9.74 9.74 0 001.891.506c4.39.506 9.387-3.196 14.477-7.657 1.448-1.265 2.428-2.69 3.222-4.047.094-.299.07-.506-.093-.667-.164-.16-.374-.207-.584-.16-.233.045-.35.23-.42.551-.117.782-.537 1.633-1.261 2.507a18.728 18.728 0 01-2.428 2.46 42.674 42.674 0 01-2.335 1.862 28.829 28.829 0 01-3.62 2.185 16.467 16.467 0 01-4.062 1.448 9.261 9.261 0 01-2.242.207 9.196 9.196 0 01-2.312-.62c-5.44-2.185.818-12.739 2.359-15.43 1.144-2 6.047-9.358 10.577-12.163.607-.39 2.452-1.287 3.222-1.15.444.093.771.346 1.004.805.094.322.141.667.094 1.012a16.524 16.524 0 01-1.705 4.898 18.298 18.298 0 01-3.058 4.184c-.117.138-.187.276-.164.437 0 .161.07.3.21.414a.76.76 0 00.421.138.45.45 0 00.373-.207c2.125-2.529 3.596-5.403 4.437-8.576.116-.414.186-.851.233-1.288.047-.437 0-.874-.14-1.288a2.09 2.09 0 00-.631-.85c-.957-.736-1.868-.828-3.222-.667-5.09.62-10.974 5.702-14.944 12.692-4.996 8.738-5.09 16.28.701 18.464z" fill="#003751"/><path d="M157.4 43.014c.802-.294 1.041-.634 1.496-1.652.196-.407.651-1.561.998-3.213 0 0 .087-.113.282-.136.109-.022.239-.022.391-.067.78-.136 1.453-.838 2.082-1.652.021-.045.087-.136.065-.204 0-.068 0-.158-.087-.18-.065-.091-.195-.091-.282 0-.108.09-.195.203-.412.474-.282.34-.564.702-1.084.883-.196.068-.369.136-.564.158h-.434l-.065-.407c-.109-.611-.13-1.403-.738-1.72-.282-.135-.715-.158-.976.046-.368.271-.477.61-.477 1.13 0 .408.217.86.542 1.087.217.136.456.271.716.385.26.113.347.135.347.203-.217 1.448-.347 2.104-.889 3.123-.239.452-.738.995-1.215.905-.26-.046-.52-.498-.542-.792-.239-1.177-.217-1.969-.152-3.01.044-.52.13-1.018.217-1.538a3.162 3.162 0 01.737-1.516c2.343-3.349 5.011-10.023 3.449-10.974-.542-.362-1.627.204-2.256 1.041-1.214 1.29-2.147 4.027-2.602 5.566-.998 3.28-1.389 7.037-1.41 7.738-.13 1.833.607 3.281.802 3.507.586.724 1.454 1.041 2.061.815zm-.412-8.485c-.326-.204.152-2.104.282-2.919.152-.882.802-3.235 1.063-4.05.303-.837.802-2.014 1.301-2.444.26-.203.868-.452 1.106 0 .282.476-.802 3.87-1.106 4.639-.629 1.674-1.085 2.33-1.909 3.892-.195.43-.564.995-.737.882zm2.451 2.919c-.065.045-.499-.159-.803-.543-.238-.272-.217-.724.022-.905.217-.159.434.068.52.294.152.362.347 1.063.261 1.154zm6.334 5.039c1.449-.36 2.266-1.192 3.248-2.72.35-.563.584-1.148.771-1.575.257-.585.42-.855.561-1.237.023-.113.023-.225-.024-.292-.023-.023-.163-.135-.374.067-.163.158-.28.742-.63 1.394-.958 1.844-2.781 3.981-4.09 3.509-.49-.18-.724-.945-.724-1.44-.047-.607-.023-.99-.023-1.439a.804.804 0 01.327-.607c.607-.383 1.285-.922 1.869-1.417.935-.787 1.94-2.069 1.075-2.946-.678-.675-1.519-.405-2.477.247-.677.495-1.495 1.597-1.893 2.61-.56 1.348-.934 3.193-.443 4.542.116.292.42.832.747 1.035.561.36 1.636.382 2.08.27zm-1.239-5.15c-.116-.067-.023-.517.024-.63.233-.787.397-1.281.911-1.979.304-.45.935-1.034 1.542-.72.397.203.538.743.234 1.215-.327.585-.795.922-1.262 1.372-.467.405-1.192.9-1.449.742z" fill="#003750"/><path d="M169.044 42.543a.869.869 0 00.385-.177c.158-.177.317-.354.384-.575l.657-3.009c.068-.376.271-.664.475-.995.181-.288 1.562-2.478 2.331-2.832.385-.177.543-.023.453.154-.046.266-.136.531-.181.819-.272 1.748-.815 4.181-.725 5.775 0 .199.136.53.476.619.203.044.882.044 1.018-.221.136-.177.294-.443.317-.686.158-1.018.249-2.301.611-3.164.113-.243.294-.664.452-.863.521-.663 1.901-2.743 2.467-2.456.204.111.068.775-.113 1.328-.181.509-.339 1.66-.453 2.345-.158.974-.294 2.08-.135 2.7.135.508.882 1.105 1.629 1.105.226 0 .385-.022.543-.044.86-.088 1.539-1.394 2.218-2.898.136-.288.928-2.124 1.064-2.456.045-.088 0-.133 0-.221 0-.044 0-.089-.046-.11-.09-.111-.226-.111-.294 0-.204.375-.724 1.68-.905 2.057-.475.995-1.109 2.19-1.381 2.522-.565.664-.995.376-.995-.509.022-.642.022-1.283.068-1.969 0-.575.384-3.03.226-3.717-.249-.885-1.041-1.172-1.63-.885-.543.266-1.267.996-1.629 1.505-.204.265-.385.575-.611.818-.136.133-.453.443-.566.244-.113-.222.046-.775.091-.996.158-.885.045-1.549-.792-1.88-.294-.133-.928.022-1.471.486-.521.42-1.064 1.04-1.72 2.036-.475.553-.589.53-.702.22-.022-.287-.068-.552-.068-.84 0-.42.114-2.057-.203-2.279-.091-.066-.362-.132-.453-.088-.339.177-.656.487-.769.863-.136.42-.543 3.385-.566 3.584-.158 1.438-.453 2.3-.249 4.049a.668.668 0 00.272.464.68.68 0 00.52.177z" fill="#003750"/><path d="M184.541 42.525c1.422-.262 2.145-2.267 2.822-3.727.022-.044.135-.24.316-.24.068 0 .135.065.135.174.023.37 0 .741 0 1.112 0 .261.023.545.046.828.045.567.316 1.352.903 1.613 1.016.414 2.257.087 3.228-1.351.745-1.09 1.603-3.488 1.671-3.662.068-.196.18-.414.203-.654 0-.087-.068-.174-.158-.174-.068-.022-.09-.022-.135 0a.929.929 0 00-.271.48c-.452 1.547-2.1 4.816-3.319 4.468-.226-.066-.407-.262-.407-.59 0-.98 0-1.96.023-2.92 0-.872 0-1.765-.068-2.637 0-.196-.09-.349-.18-.523-.158-.196-.429-.175-.61 0-.339.305-.293.632-.406 1.307-.091.175-.158.35-.249.502-.248.48-.519.98-.812 1.46-.791 1.417-1.265 2.638-2.145 3.291-.294.218-.858.153-.949-.305-.338-1.547-.112-4.206 1.084-5.906.678-.938 1.4-1.287 2.1-1.069.474.088-.361 1.46.203 1.46.09 0 .158 0 .294-.13.225-.37.27-.61.27-1.024 0-.458-.27-.85-.722-.894-1.197-.174-2.619.697-3.387 1.744-1.58 2.136-1.986 4.838-1.332 6.451.362.589 1.129 1.047 1.852.916z" fill="#003750"/><path d="M13.676 1.304S14.338 0 21.065 0s7.389 1.304 7.389 1.304v42.61s-.551-1.523-7.39-1.523c-6.837 0-7.388 1.522-7.388 1.522V1.304z" fill="url(#paint0_linear)"/><ellipse cx="21.065" cy="44.022" rx="7.389" ry="1.63" fill="#AAAFB1"/><g opacity=".6"><path d="M0 22.609s2.206-1.74 11.25-1.74c9.043 0 11.69 1.74 11.69 1.74v27.826s-3.31-1.087-11.47-1.087C3.309 49.348 0 50.435 0 50.435V22.609z" fill="url(#paint1_linear)"/><ellipse cx="11.47" cy="50.652" rx="11.47" ry="1.304" fill="#E7C5B2"/></g><g opacity=".6"><path d="M32.096 55.466c-3.195 0-5.695.216-8.434 1.556v1.359h17.306v-1.359c-3.833-1.448-5.677-1.556-8.872-1.556z" fill="url(#paint2_linear)"/><path d="M32.315 28.479c-8.71 0-15.772 6.96-15.772 15.544 0 5.437 2.831 10.22 7.12 13 2.738-1.34 5.238-1.557 8.433-1.557 3.196 0 5.039.108 8.872 1.556 4.288-2.778 7.12-7.562 7.12-12.998 0-8.586-7.062-15.546-15.773-15.546z" fill="url(#paint3_linear)"/><path fill-rule="evenodd" clip-rule="evenodd" d="M23.801 58.322c.398-.83 4.529-1.426 9.229-1.335 4.699.09 8.195.839 7.797 1.669-.398.83-4.529 1.425-9.228 1.335-4.7-.09-8.186-.839-7.798-1.67z" fill="#2D6089"/></g><defs><linearGradient id="paint0_linear" x1="30.108" y1="22.174" x2="9.816" y2="22.174" gradientUnits="userSpaceOnUse"><stop stop-color="#B5BBBE"/><stop offset="1" stop-color="#E8EAEB"/></linearGradient><linearGradient id="paint1_linear" x1="-4.853" y1="33.804" x2="27.458" y2="35.706" gradientUnits="userSpaceOnUse"><stop stop-color="#F5A42A"/><stop offset="1" stop-color="#fff"/></linearGradient><linearGradient id="paint2_linear" x1="49.408" y1="17.826" x2="13.73" y2="70.809" gradientUnits="userSpaceOnUse"><stop offset="0" stop-color="#022948"/><stop offset=".561" stop-color="#9BB3BF"/><stop offset=".984" stop-color="#3D6C83"/></linearGradient><linearGradient id="paint3_linear" x1="49.408" y1="17.826" x2="13.73" y2="70.809" gradientUnits="userSpaceOnUse"><stop offset="0" stop-color="#022948"/><stop offset=".561" stop-color="#9BB3BF"/><stop offset=".984" stop-color="#3D6C83"/></linearGradient></defs></svg>