<svg width="12" height="13" viewBox="0 0 12 13" fill="none" xmlns="http://www.w3.org/2000/svg">
<path fill-rule="evenodd" clip-rule="evenodd" d="M6.00039 1.50322C4.95105 1.50322 4.10039 2.35388 4.10039 3.40322C4.10039 4.45257 4.95105 5.30323 6.00039 5.30323C7.04973 5.30323 7.90039 4.45257 7.90039 3.40322C7.90039 2.35388 7.04973 1.50322 6.00039 1.50322ZM2.90039 3.40322C2.90039 1.69114 4.28831 0.303223 6.00039 0.303223C7.71248 0.303223 9.10039 1.69114 9.10039 3.40322C9.10039 5.11531 7.71248 6.50323 6.00039 6.50323C4.28831 6.50323 2.90039 5.11531 2.90039 3.40322Z" fill="#036A9B"/>
<path fill-rule="evenodd" clip-rule="evenodd" d="M6.00039 8.32109C3.46657 8.32109 1.60039 9.83777 1.60039 12.0961C1.60039 12.4275 1.33176 12.6961 1.00039 12.6961C0.66902 12.6961 0.400391 12.4275 0.400391 12.0961C0.400391 8.98499 3.01136 7.12109 6.00039 7.12109C8.98942 7.12109 11.6004 8.98499 11.6004 12.0961C11.6004 12.4275 11.3318 12.6961 11.0004 12.6961C10.669 12.6961 10.4004 12.4275 10.4004 12.0961C10.4004 9.83777 8.53421 8.32109 6.00039 8.32109Z" fill="#036A9B"/>
</svg>
