<svg width="28" height="28" fill="none" xmlns="http://www.w3.org/2000/svg"><g clip-path="url(#clip0)"><path d="M27.378 6.926v-.06c-.03-.059-.03-.118-.06-.177v-.03a.646.646 0 00-.118-.148l-.03-.03c-.03-.029-.088-.058-.118-.088l-.03-.03h-.03l-.029-.03L14.384.09a.943.943 0 00-.799 0l-4.232 2.1 12.638 6.482.03.03c.03 0 .03.03.059.03.03.029.03.058.059.088v6.955a.31.31 0 01-.148.267l-2.545 1.331c-.148.09-.326.03-.415-.118-.03-.03-.03-.089-.03-.148V10.39L6.216 3.79l-.03-.03-5.12 2.545-.03.03h-.03l-.029.03c-.03.029-.089.059-.118.088l-.03.03C.77 6.54.74 6.6.681 6.659v.03a.42.42 0 00-.06.178v.059c0 .059-.029.088-.029.148v13.821c0 .326.178.652.503.8l12.46 6.215a.813.813 0 00.593.06l.059-.03c.06 0 .089-.03.148-.06l12.549-6.215a.891.891 0 00.503-.8V7.074c-.03-.059-.03-.088-.03-.147z" fill="#EC863D"/></g><defs><clipPath id="clip0"><path fill="#fff" d="M0 0h28v28H0z"/></clipPath></defs></svg>