<svg width="28" height="28" fill="none" xmlns="http://www.w3.org/2000/svg"><g clip-path="url(#clip0)"><path d="M26.79 17.122c0-.001-.003-.002-.004-.005l-1.794-1.648c.06-.497.092-.99.092-1.469 0-.48-.032-.972-.092-1.469l1.799-1.653a1.772 1.772 0 00.326-2.164l-1.98-3.423c-.396-.706-1.258-1.042-2.048-.796l-2.329.735a10.672 10.672 0 00-2.537-1.473l-.538-2.39A1.756 1.756 0 0015.984 0h-3.967c-.81 0-1.525.575-1.7 1.365l-.539 2.392A10.67 10.67 0 007.241 5.23L4.91 4.495c-.785-.244-1.65.089-2.042.789L.88 8.72a1.77 1.77 0 00.336 2.162L3.01 12.53c-.061.497-.093.99-.093 1.469 0 .48.032.972.092 1.469L1.21 17.122a1.77 1.77 0 00-.326 2.163l1.98 3.423c.396.707 1.257 1.042 2.048.797l2.329-.735a10.63 10.63 0 002.537 1.473l.538 2.39A1.755 1.755 0 0012.017 28h3.967c.81 0 1.525-.575 1.7-1.365l.539-2.392a10.633 10.633 0 002.537-1.473l2.331.735c.788.246 1.65-.09 2.043-.79l1.988-3.437a1.77 1.77 0 00-.331-2.156zM14 19.833A5.84 5.84 0 018.167 14 5.84 5.84 0 0114 8.167 5.84 5.84 0 0119.834 14 5.84 5.84 0 0114 19.833z" fill="#EC863D"/></g><defs><clipPath id="clip0"><path fill="#fff" d="M0 0h28v28H0z"/></clipPath></defs></svg>