<svg width="75" height="26" fill="none" xmlns="http://www.w3.org/2000/svg"><path d="M41.177 12.628h2.788l-3.86 4.684 4.59 5.285h-3.117l-4.139-4.832v4.832h-2.496v-9.97h2.496v4.599l3.738-4.598zm10.165 9.968h-2.583l4.354-9.969h2.632l4.39 9.97h-2.57l-3.124-7.52-.984 2.388-2.115 5.131zm21.07-9.969h2.35v9.97h-2.117l-5.295-6.193v6.192h-2.34v-9.969h2.084l5.318 6.217v-6.217zM19.655 25.088H0L13.245.167l13.316 24.92h-6.906zm-9.257-5.822h5.566l-2.778-5.995-2.788 5.995zM40.026 7.835l-.008-3.22-1.58 2.652h-.559l-1.572-2.584v3.152h-1.165V2.467h1.027l2.01 3.336 1.977-3.336h1.02l.016 5.368h-1.166zm6.357-1.15h-2.492l-.475 1.15h-1.273l2.392-5.368h1.227l2.4 5.368H46.86l-.476-1.15zm-.39-.944l-.852-2.055-.85 2.055h1.702zm3.11-3.274h2.438c.583 0 1.097.113 1.542.338.45.22.797.531 1.042.935.25.404.376.874.376 1.411s-.125 1.007-.376 1.411a2.492 2.492 0 01-1.042.943c-.445.22-.959.33-1.542.33h-2.438V2.467zm2.377 4.348c.537 0 .964-.148 1.28-.445.323-.301.484-.708.484-1.219 0-.511-.161-.915-.483-1.212-.318-.301-.744-.452-1.281-.452h-1.135v3.328h1.135zm8.497.023v.997h-4.156V2.467h4.057v.997h-2.822V4.63h2.492v.966h-2.492v1.242h2.921zm7.869-1.794c.306.097.547.26.72.49.174.225.261.504.261.836 0 .47-.184.834-.552 1.09-.363.25-.895.375-1.595.375h-2.776V2.467h2.623c.654 0 1.155.125 1.503.376.352.25.529.59.529 1.02 0 .26-.064.493-.192.698a1.289 1.289 0 01-.521.483zm-2.707-1.641v1.265h1.234c.307 0 .54-.054.698-.161a.537.537 0 00.238-.475c0-.21-.08-.366-.238-.468-.158-.108-.39-.161-.698-.161H65.14zm1.449 3.496c.327 0 .573-.053.736-.16.169-.108.253-.274.253-.5 0-.444-.33-.666-.989-.666h-1.45v1.326h1.45zm6.027-.966v1.902h-1.242V5.918l-2.078-3.45h1.319l1.434 2.384 1.434-2.385H74.7l-2.086 3.466z" fill="#E1E1E3"/></svg>