<svg width="18" height="18" viewBox="0 0 18 18" fill="none" xmlns="http://www.w3.org/2000/svg">
<path d="M14.25 7.77273C14.25 12.0682 9 15.75 9 15.75C9 15.75 3.75 12.0682 3.75 7.77273C3.75 6.30801 4.30312 4.90328 5.28769 3.86757C6.27226 2.83186 7.60761 2.25 9 2.25C10.3924 2.25 11.7277 2.83186 12.7123 3.86757C13.6969 4.90328 14.25 6.30801 14.25 7.77273Z" stroke="#212123" stroke-linecap="round" stroke-linejoin="round"/>
<path d="M9 9.75C10.2426 9.75 11.25 8.74264 11.25 7.5C11.25 6.25736 10.2426 5.25 9 5.25C7.75736 5.25 6.75 6.25736 6.75 7.5C6.75 8.74264 7.75736 9.75 9 9.75Z" stroke="#212123" stroke-linecap="round" stroke-linejoin="round"/>
</svg>
