<svg width="189" height="58" viewBox="0 0 189 58" fill="none" xmlns="http://www.w3.org/2000/svg">
<path d="M59.9684 22.3455L62.0363 14.9872C62.1198 14.7138 62.2451 14.5771 62.4122 14.5771H63.9162V31.8682C63.9162 32.0732 63.8326 32.1871 63.6655 32.2327C63.4984 32.2555 62.9553 32.2782 62.0154 32.2782L62.0781 26.0817C62.1198 24.6009 62.2452 22.095 62.4958 18.5411C61.7647 21.5482 61.2634 23.4618 60.9919 24.3048L59.7595 28.2003C59.7177 28.337 59.6342 28.4054 59.5088 28.4054H58.6942L57.4827 24.3048C57.2738 23.6441 56.7934 21.7532 55.9997 18.5866L55.9788 18.6094C56.2503 21.7532 56.3965 24.1909 56.4383 25.9678V31.8682C56.4383 32.0732 56.3548 32.1871 56.1877 32.2327C56.0206 32.2555 55.4984 32.2782 54.6211 32.2782V14.9872C54.6211 14.8277 54.6629 14.7138 54.7046 14.6682C54.7673 14.6227 54.8509 14.5999 54.9762 14.5999H56.313L58.548 22.2772L59.3 25.0793C59.5715 23.8719 59.8013 22.9606 59.9684 22.3455Z" fill="#003751"/>
<path d="M70.256 30.3449C71.3316 30.3449 72.3827 30.0752 73.3604 29.5357C73.4827 29.8954 73.556 30.3674 73.556 30.9069C73.556 31.2891 73.1893 31.6038 72.456 31.8735C71.7227 32.1433 70.8427 32.2782 69.816 32.2782C69.1315 32.2782 68.5449 32.1882 68.056 32.0309C67.5671 31.8735 67.1271 31.5813 66.7115 31.1767C66.2959 30.772 66.0026 30.1651 65.7826 29.3783C65.5626 28.5916 65.4648 27.6025 65.4648 26.4111C65.4648 24.905 65.5871 23.6686 65.856 22.6795C66.1249 21.6904 66.4915 20.9487 67.0049 20.4766C67.5182 20.0045 68.0071 19.6898 68.496 19.5099C68.9849 19.3526 69.596 19.2627 70.2804 19.2627C72.5782 19.2627 73.7271 20.589 73.7271 23.264C73.7271 24.5903 73.6293 25.6693 73.4338 26.501C71.9671 26.7708 70.0604 26.9056 67.7382 26.9056C67.7871 28.2094 68.0071 29.0861 68.3982 29.5807C68.7404 30.1202 69.376 30.3449 70.256 30.3449ZM70.0115 21.106C68.6426 21.106 67.8604 22.5222 67.7137 25.3545C69.3515 25.377 70.5982 25.2871 71.4538 25.0848C71.5515 24.7027 71.6004 24.2082 71.6004 23.5787C71.576 22.6571 71.4538 22.0052 71.2582 21.6455C71.0138 21.2858 70.5982 21.106 70.0115 21.106Z" fill="#003751"/>
<path d="M82.5064 19.2627V31.7437C82.5064 31.9528 82.442 32.0691 82.3347 32.1155C82.1845 32.1388 81.6051 32.162 80.5535 32.162V21.0291H78.5577C78.3431 25.0964 77.9997 27.9785 77.5276 29.6984C77.0555 31.4183 76.3258 32.2782 75.2957 32.2782C74.5875 32.2782 74.2441 31.8831 74.2441 31.0929C74.2441 31.0232 74.2656 30.8605 74.287 30.628C75.1025 30.6048 75.6605 29.9075 75.9395 28.4897C76.2185 27.0952 76.476 24.2132 76.7335 19.867C76.755 19.5881 76.8409 19.4254 76.9911 19.3557C77.1413 19.286 77.6134 19.2627 78.3646 19.2627H82.5064Z" fill="#003751"/>
<path d="M84.5723 25.7479C84.5723 21.4244 85.9137 19.2627 88.5751 19.2627C89.8949 19.2627 90.8469 19.7356 91.4311 20.6588C92.0153 21.5821 92.3182 23.2709 92.3182 25.7254C92.3182 27.9997 91.9937 29.6435 91.3229 30.7019C90.6522 31.7602 89.6785 32.2782 88.3587 32.2782C87.6879 32.2782 87.147 32.2106 86.7143 32.053C86.2816 31.8954 85.9138 31.6026 85.5676 31.1523C85.2214 30.7019 84.9834 30.0489 84.8319 29.1707C84.6588 28.2474 84.5723 27.1215 84.5723 25.7479ZM86.6927 25.7929C86.6927 27.1215 86.7576 28.1348 86.909 28.8554C87.0605 29.5534 87.2336 30.0264 87.4716 30.229C87.6879 30.4317 88.0125 30.5442 88.402 30.5442C88.9861 30.5442 89.4189 30.184 89.7434 29.4859C90.068 28.7878 90.2194 27.5268 90.2194 25.6803C90.2194 23.7888 90.0896 22.5053 89.83 21.8748C89.5703 21.2443 89.1376 20.929 88.5318 20.929C87.9476 20.929 87.4932 21.2893 87.1687 21.9874C86.8441 22.6854 86.6927 23.9465 86.6927 25.7929Z" fill="#003751"/>
<path d="M102.647 29.974V33.84H101.122C101.015 33.1578 100.951 32.4983 100.908 31.8843H95.0689C95.026 32.5211 94.9616 33.1578 94.8542 33.84H93.3516V29.974H94.0814C94.4678 29.5647 94.8113 28.6095 95.0474 27.1313C95.305 25.6531 95.5197 23.2425 95.6914 19.8768C95.7129 19.5811 95.7773 19.4219 95.8632 19.3537C95.9705 19.2855 96.271 19.2627 96.7648 19.2627H101.402V29.9513H102.647V29.974ZM99.5339 20.9911H97.4302C97.1726 25.8123 96.7218 28.7915 96.0993 29.974H99.5339V20.9911Z" fill="#003751"/>
<path d="M107.979 24.7738L110.566 19.7786C110.685 19.5441 110.853 19.4034 111.021 19.3565C111.212 19.3096 111.691 19.2861 112.458 19.2861V31.903C112.458 32.0906 112.362 32.2079 112.17 32.2313C111.979 32.2548 111.404 32.2782 110.446 32.2782V26.6264C110.446 26.087 110.518 25.3131 110.638 24.2813C110.733 23.2494 110.805 22.5693 110.829 22.1941C109.608 24.8441 108.889 26.3919 108.674 26.7906L106.111 31.7623C105.991 31.9968 105.848 32.1375 105.656 32.1844C105.489 32.2313 104.986 32.2548 104.195 32.2548V19.6379C104.195 19.4503 104.291 19.333 104.507 19.3096C104.722 19.2861 105.273 19.2627 106.231 19.2627V25.2194C106.231 25.6649 106.159 26.4857 106.015 27.6817C105.92 28.4556 105.872 28.9246 105.848 29.1122C105.872 29.0653 105.968 28.8543 106.135 28.4791C107.045 26.6264 107.644 25.3601 107.979 24.7738Z" fill="#003751"/>
<path d="M118.844 19.2627H121.356C121.473 19.2627 121.566 19.286 121.635 19.3558C121.705 19.4257 121.728 19.4723 121.728 19.5188L121.752 19.612V32.1617C120.728 32.1617 120.147 32.1385 119.961 32.1152C119.775 32.0919 119.682 31.9522 119.682 31.7193V26.9463H118.565C117.704 26.9463 117.123 27.668 116.844 29.1116L116.239 31.8358C116.216 32.0221 116.146 32.1385 116.053 32.2083C115.96 32.2549 115.727 32.2782 115.332 32.2782C114.913 32.2782 114.471 32.2549 114.006 32.2083L114.727 28.9254C114.96 27.831 115.564 27.0627 116.472 26.5737C115.843 26.3409 115.332 25.9218 114.89 25.3164C114.448 24.711 114.238 23.9194 114.238 22.9182C114.285 20.4967 115.797 19.2627 118.844 19.2627ZM119.682 25.2V21.0323C119.1 21.009 118.658 20.9857 118.356 20.9857C117.728 20.9857 117.286 21.1487 116.983 21.4746C116.681 21.8006 116.541 22.3129 116.541 23.0347C116.541 24.5248 117.146 25.2466 118.332 25.2466C118.588 25.2698 119.053 25.2466 119.682 25.2Z" fill="#003751"/>
<path d="M69.5977 38.6165C69.5977 36.8283 70.2612 35.9454 71.5662 35.9454C72.2077 35.9454 72.6722 36.1265 72.9597 36.5113C73.2472 36.8961 73.4021 37.5979 73.4021 38.5938C73.4021 39.5219 73.2472 40.201 72.9155 40.6537C72.5837 41.0838 72.0971 41.3101 71.4556 41.3101C71.1238 41.3101 70.8584 41.2875 70.6372 41.2196C70.4382 41.1517 70.2391 41.0385 70.0622 40.8574C69.8852 40.6763 69.7746 40.4047 69.6861 40.0426C69.6198 39.6351 69.5977 39.1824 69.5977 38.6165ZM70.6372 38.6165C70.6372 39.1598 70.6815 39.5898 70.7478 39.8841C70.8142 40.1784 70.9027 40.3594 71.0132 40.45C71.1238 40.5405 71.2787 40.5858 71.4778 40.5858C71.7653 40.5858 71.9865 40.45 72.1413 40.1557C72.2961 39.8614 72.3625 39.3408 72.3625 38.5938C72.3625 37.8016 72.2961 37.281 72.1634 37.032C72.0307 36.7603 71.8317 36.6472 71.522 36.6472C71.2345 36.6472 71.0133 36.783 70.8584 37.0772C70.7036 37.3489 70.6372 37.8695 70.6372 38.6165ZM77.7594 36.036V41.0159C77.7594 41.1064 77.7152 41.1517 77.6488 41.1517C77.5604 41.1743 77.295 41.1743 76.8084 41.1743V36.8056H75.2822V41.0159C75.2822 41.1064 75.2379 41.1517 75.1716 41.1517C75.0831 41.1743 74.8177 41.1743 74.331 41.1743V36.2171C74.331 36.1266 74.3753 36.0586 74.4637 36.036C74.5522 36.0134 74.8177 36.0134 75.3043 36.0134H77.7594V36.036ZM80.7233 36.7604V41.0159C80.7233 41.1064 80.6791 41.1517 80.6128 41.1517C80.5464 41.1743 80.2588 41.1743 79.7722 41.1743V36.7377H78.4672C78.4672 36.3982 78.4672 36.2171 78.4894 36.1266C78.5115 36.0587 78.5778 36.0134 78.6663 36.0134H81.9841C81.9841 36.3529 81.9841 36.534 81.962 36.6246C81.9398 36.6925 81.8735 36.7377 81.785 36.7377H80.7233V36.7604ZM86.2309 38.209L87.3811 36.2397C87.4253 36.1492 87.5138 36.104 87.5801 36.0813C87.6686 36.0587 87.8676 36.0587 88.2215 36.0587V41.0611C88.2215 41.129 88.1773 41.1743 88.0888 41.1969C88.0004 41.2196 87.7571 41.2196 87.3368 41.2196V38.9787C87.3368 38.775 87.3589 38.458 87.4253 38.0506C87.4695 37.6432 87.4916 37.3715 87.5138 37.2357C86.9608 38.2769 86.6511 38.8881 86.5626 39.0692L85.4346 41.0385C85.3904 41.129 85.324 41.1969 85.2355 41.2196C85.1471 41.2422 84.948 41.2422 84.5941 41.2422V36.2397C84.5941 36.1718 84.6383 36.1265 84.7268 36.1039C84.8153 36.0813 85.0807 36.0813 85.4788 36.0813V38.4354C85.4788 38.6165 85.4567 38.9334 85.3904 39.4088C85.3461 39.703 85.324 39.9067 85.324 39.9747C85.324 39.952 85.3682 39.8614 85.4567 39.7256C85.8106 38.9334 86.076 38.4354 86.2309 38.209ZM91.2297 42.8494V36.3303C91.7163 36.0586 92.2914 35.9229 92.9549 35.9229C93.5742 35.9229 94.0609 36.0813 94.3927 36.3982C94.7244 36.7151 94.8793 37.2809 94.8793 38.0732C94.8793 40.2236 94.2821 41.2875 93.1098 41.2875C92.7116 41.2875 92.402 41.1969 92.1808 40.9932V43.1436C92.026 43.1889 91.849 43.2115 91.6942 43.2115C91.5172 43.2115 91.4066 43.1889 91.3403 43.1436C91.2739 43.0757 91.2297 42.9852 91.2297 42.8494ZM92.1808 36.8509V40.201C92.3356 40.4273 92.5568 40.5405 92.8222 40.5405C93.4858 40.5405 93.8175 39.7483 93.8175 38.1638C93.8175 37.5752 93.7512 37.1678 93.5964 36.9641C93.4415 36.7604 93.2203 36.6472 92.8886 36.6472C92.6453 36.6472 92.402 36.7151 92.1808 36.8509ZM95.5649 38.6165C95.5649 36.8283 96.2285 35.9454 97.5335 35.9454C98.1749 35.9454 98.6394 36.1265 98.927 36.5113C99.2145 36.8961 99.3693 37.5979 99.3693 38.5938C99.3693 39.5219 99.2145 40.201 98.8827 40.6537C98.551 41.0838 98.0643 41.3101 97.4229 41.3101C97.0911 41.3101 96.8257 41.2875 96.6045 41.2196C96.4054 41.1517 96.2064 41.0385 96.0294 40.8574C95.8525 40.6763 95.7419 40.4047 95.6534 40.0426C95.6092 39.6351 95.5649 39.1824 95.5649 38.6165ZM96.6045 38.6165C96.6045 39.1598 96.6488 39.5898 96.7151 39.8841C96.7815 40.1784 96.8699 40.3594 96.9805 40.45C97.0911 40.5405 97.2459 40.5858 97.445 40.5858C97.7325 40.5858 97.9537 40.45 98.1086 40.1557C98.2634 39.8614 98.3298 39.3408 98.3298 38.5938C98.3298 37.8016 98.2634 37.281 98.1307 37.032C97.998 36.7603 97.7989 36.6472 97.4892 36.6472C97.2017 36.6472 96.9805 36.783 96.8257 37.0772C96.6709 37.3489 96.6045 37.8695 96.6045 38.6165ZM100.652 38.1864H101.67C101.935 37.9374 102.09 37.6658 102.09 37.3263C102.09 36.8735 101.847 36.6472 101.36 36.6472C101.006 36.6472 100.674 36.7603 100.365 37.0093C100.232 36.8282 100.143 36.6698 100.143 36.5566C100.143 36.4208 100.254 36.285 100.497 36.1492C100.741 36.0134 101.072 35.9454 101.493 35.9454C102.51 35.9454 102.997 36.3303 102.997 37.0999C102.997 37.5979 102.776 38.0279 102.355 38.3675C102.953 38.6165 103.24 39.0692 103.24 39.6804C103.24 40.201 103.085 40.6084 102.753 40.8801C102.422 41.1517 101.979 41.2875 101.404 41.2875C101.028 41.2875 100.696 41.2422 100.431 41.129C100.166 41.0158 100.033 40.88 100.033 40.6989C100.033 40.5405 100.077 40.382 100.188 40.201C100.542 40.4726 100.94 40.5858 101.382 40.5858C101.625 40.5858 101.847 40.5179 102.024 40.3821C102.201 40.2463 102.289 40.0199 102.289 39.703C102.289 39.1371 101.979 38.8655 101.36 38.8655H100.896C100.741 38.8655 100.652 38.7975 100.652 38.6391V38.1864V38.1864ZM107.664 36.036V41.0159C107.664 41.1064 107.62 41.1517 107.553 41.1517C107.487 41.1743 107.199 41.1743 106.713 41.1743V38.956H105.164V41.0159C105.164 41.1064 105.12 41.1517 105.054 41.1517C104.965 41.1743 104.7 41.1743 104.213 41.1743V36.1945C104.213 36.1039 104.258 36.0587 104.324 36.0587C104.39 36.036 104.678 36.036 105.187 36.036V38.2543H106.735V36.1945C106.735 36.1039 106.779 36.0587 106.868 36.0587C106.956 36.0587 107.199 36.036 107.664 36.036ZM110.539 38.209L111.689 36.2397C111.734 36.1492 111.822 36.104 111.888 36.0813C111.977 36.0587 112.176 36.0587 112.53 36.0587V41.0611C112.53 41.129 112.486 41.1743 112.397 41.1969C112.309 41.2196 112.065 41.2196 111.645 41.2196V38.9787C111.645 38.775 111.667 38.458 111.734 38.0506C111.778 37.6432 111.8 37.3715 111.822 37.2357C111.269 38.2769 110.959 38.8881 110.871 39.0692L109.743 41.0385C109.699 41.129 109.61 41.1969 109.544 41.2196C109.455 41.2422 109.256 41.2422 108.902 41.2422V36.2397C108.902 36.1718 108.947 36.1265 109.035 36.1039C109.124 36.0813 109.389 36.0813 109.787 36.0813V38.4354C109.787 38.6165 109.765 38.9334 109.699 39.4088C109.655 39.703 109.632 39.9067 109.632 39.9747C109.632 39.952 109.677 39.8614 109.765 39.7256C110.141 38.9334 110.407 38.4354 110.539 38.209ZM117.794 40.4047V42.5777C117.794 42.6909 117.75 42.7362 117.684 42.7814C117.617 42.8041 117.462 42.8267 117.219 42.8267C117.064 42.2382 116.976 41.6949 116.932 41.1969H113.724V36.2171C113.724 36.1266 113.769 36.0813 113.835 36.0813C113.923 36.0587 114.189 36.0587 114.675 36.0587V40.4273H116.202V36.2171C116.202 36.1266 116.246 36.0813 116.312 36.0813C116.401 36.0587 116.666 36.0587 117.153 36.0587V40.4273H117.794V40.4047ZM121.753 37.1904V37.7337C121.753 39.2503 121.731 40.3141 121.687 40.9253C121.245 41.1517 120.692 41.2648 120.05 41.2648C119.807 41.2648 119.586 41.2422 119.409 41.2196C119.232 41.1969 119.055 41.1291 118.9 41.0159C118.723 40.9253 118.59 40.7669 118.502 40.5405C118.413 40.3142 118.369 40.0425 118.369 39.703C118.369 39.0465 118.524 38.6165 118.789 38.3675C119.077 38.1411 119.453 38.0053 119.94 38.0053C120.316 38.0053 120.603 38.0506 120.802 38.1411V37.3263C120.802 37.0999 120.736 36.9415 120.625 36.8509C120.515 36.7604 120.316 36.7151 120.072 36.7151C119.475 36.7151 118.944 36.783 118.502 36.9414C118.413 36.8056 118.369 36.6472 118.369 36.4661C118.369 36.3303 118.413 36.2397 118.502 36.1945C118.613 36.1266 118.856 36.0587 119.188 36.0134C119.519 35.9455 119.895 35.9229 120.316 35.9229C120.824 35.9229 121.2 36.0134 121.422 36.2171C121.643 36.3982 121.753 36.7377 121.753 37.1904ZM120.802 38.7523C120.647 38.6844 120.471 38.6391 120.249 38.6391C119.962 38.6391 119.741 38.707 119.586 38.8655C119.431 39.0013 119.342 39.2955 119.342 39.703C119.342 40.0425 119.409 40.2915 119.542 40.4047C119.674 40.5178 119.873 40.5858 120.139 40.5858C120.404 40.5858 120.625 40.5405 120.758 40.4273C120.78 40.1783 120.802 39.6351 120.802 38.7523Z" fill="#212123"/>
<path d="M129.008 44.2394C129.648 44.4839 130.244 44.6395 130.796 44.7284C134.944 45.2174 139.666 41.6388 144.476 37.3267C145.844 36.1043 146.771 34.7262 147.521 33.4148C147.61 33.1259 147.587 32.9258 147.433 32.7702C147.279 32.6146 147.08 32.5702 146.881 32.6146C146.661 32.6591 146.55 32.8369 146.484 33.1481C146.374 33.9038 145.977 34.7262 145.293 35.5709C144.609 36.4155 143.858 37.2157 142.998 37.9492C142.159 38.6826 141.409 39.2828 140.791 39.7495C139.754 40.5053 138.607 41.2165 137.371 41.8611C136.135 42.5056 134.856 42.9724 133.532 43.2614C132.826 43.417 132.12 43.4836 131.414 43.4614C130.752 43.3725 130.023 43.1947 129.229 42.8613C124.088 40.7497 130.001 30.5476 131.458 27.947C132.539 26.0133 137.173 18.9006 141.453 16.1889C142.027 15.811 143.77 14.9442 144.498 15.0775C144.918 15.1665 145.226 15.411 145.447 15.8555C145.535 16.1667 145.58 16.5001 145.535 16.8335C145.249 18.5005 144.697 20.0786 143.925 21.5678C143.13 23.0792 142.181 24.4129 141.034 25.6131C140.924 25.7465 140.857 25.8799 140.88 26.0354C140.88 26.191 140.946 26.3244 141.078 26.4355C141.211 26.5244 141.343 26.5689 141.475 26.5689C141.608 26.5689 141.74 26.5022 141.828 26.3688C143.836 23.9239 145.226 21.1455 146.021 18.0782C146.131 17.6781 146.197 17.2558 146.241 16.8335C146.286 16.4112 146.241 15.9888 146.109 15.5887C145.977 15.2553 145.778 14.9886 145.513 14.7663C144.609 14.0551 143.748 13.9662 142.468 14.1218C137.658 14.7219 132.098 19.6341 128.346 26.3911C123.624 34.8373 123.536 42.1278 129.008 44.2394Z" fill="#003751"/>
<path d="M148.744 41.5798C149.502 41.2955 149.727 40.9674 150.158 39.9832C150.342 39.5895 150.773 38.474 151.101 36.8773C151.101 36.8773 151.183 36.768 151.367 36.7461C151.47 36.7242 151.593 36.7242 151.736 36.6805C152.474 36.5492 153.109 35.8713 153.704 35.0839C153.724 35.0401 153.786 34.9526 153.765 34.887C153.765 34.8214 153.765 34.7339 153.683 34.712C153.622 34.6245 153.499 34.6245 153.417 34.712C153.314 34.7995 153.232 34.9088 153.027 35.1713C152.761 35.4994 152.494 35.8494 152.003 36.0243C151.818 36.09 151.654 36.1556 151.47 36.1775C151.347 36.1775 151.06 36.1775 151.06 36.1775L150.998 35.7837C150.896 35.1932 150.875 34.4277 150.301 34.1215C150.035 33.9903 149.625 33.9684 149.379 34.1652C149.03 34.4277 148.928 34.7557 148.928 35.2588C148.928 35.6525 149.133 36.09 149.44 36.3087C149.645 36.4399 149.871 36.5711 150.117 36.6805C150.363 36.7898 150.445 36.8117 150.445 36.8773C150.24 38.2771 150.117 38.9114 149.604 39.8957C149.379 40.3331 148.907 40.858 148.457 40.7705C148.211 40.7268 147.965 40.2894 147.944 40.0051C147.719 38.8677 147.739 38.1022 147.801 37.096C147.842 36.593 147.924 36.1118 148.006 35.6088C148.149 34.7339 148.702 34.1433 148.702 34.1433C150.916 30.9063 153.437 24.4541 151.962 23.5354C151.449 23.1855 150.424 23.7323 149.83 24.5415C148.682 25.7882 147.801 28.4347 147.37 29.922C146.427 33.0935 146.058 36.7243 146.038 37.4023C145.915 39.1739 146.612 40.5737 146.796 40.7924C147.35 41.4923 148.17 41.7986 148.744 41.5798ZM148.354 33.3778C148.047 33.181 148.498 31.3437 148.621 30.5563C148.764 29.7033 149.379 27.4286 149.625 26.6412C149.912 25.832 150.383 24.6947 150.855 24.2791C151.101 24.0822 151.675 23.8416 151.9 24.2791C152.167 24.7384 151.142 28.0192 150.855 28.7628C150.26 30.3813 149.83 31.0156 149.051 32.5248C148.866 32.9404 148.518 33.4872 148.354 33.3778ZM150.67 36.1993C150.609 36.243 150.199 36.0462 149.912 35.6744C149.686 35.4119 149.707 34.9745 149.932 34.7995C150.137 34.6464 150.342 34.8651 150.424 35.0839C150.568 35.4338 150.752 36.1118 150.67 36.1993Z" fill="#003750"/>
<path d="M156.657 41.0709C158.026 40.7231 158.798 39.9186 159.726 38.4403C160.057 37.8968 160.278 37.3316 160.455 36.9186C160.697 36.3533 160.852 36.0924 160.985 35.7228C161.007 35.6141 161.007 35.5055 160.962 35.4403C160.94 35.4185 160.808 35.3098 160.609 35.5055C160.455 35.6577 160.344 36.2229 160.013 36.8533C159.108 38.636 157.385 40.7013 156.149 40.2448C155.685 40.0708 155.464 39.3317 155.464 38.8534C155.42 38.2664 155.442 37.8969 155.442 37.4621C155.464 37.2229 155.553 37.0272 155.751 36.875C156.325 36.5055 156.966 35.9838 157.518 35.5055C158.401 34.7446 159.35 33.5054 158.533 32.6576C157.893 32.0054 157.098 32.2662 156.193 32.8967C155.553 33.3749 154.78 34.4402 154.404 35.4185C153.874 36.7229 153.521 38.5055 153.985 39.8099C154.095 40.0926 154.382 40.6144 154.691 40.81C155.221 41.1579 156.237 41.1796 156.657 41.0709ZM155.486 36.0924C155.376 36.0272 155.464 35.5924 155.508 35.4837C155.729 34.7228 155.884 34.2445 156.37 33.5706C156.657 33.1358 157.253 32.5705 157.827 32.8749C158.202 33.0706 158.335 33.5923 158.048 34.0489C157.739 34.6141 157.297 34.9402 156.855 35.375C156.414 35.7664 155.729 36.2446 155.486 36.0924Z" fill="#003750"/>
<path d="M159.748 41.1248C159.876 41.1034 160.004 41.0393 160.111 40.9538C160.261 40.7827 160.411 40.6115 160.475 40.3977L161.095 37.4891C161.159 37.1255 161.352 36.8475 161.544 36.5267C161.715 36.2487 163.02 34.1314 163.747 33.7892C164.11 33.6181 164.26 33.7678 164.175 33.9389C164.132 34.1956 164.046 34.4522 164.003 34.7302C163.747 36.4198 163.234 38.7723 163.319 40.3122C163.319 40.5047 163.447 40.8255 163.768 40.911C163.961 40.9538 164.602 40.9538 164.731 40.6971C164.859 40.526 165.009 40.2694 165.03 40.0341C165.18 39.0504 165.265 37.8099 165.607 36.9758C165.714 36.7405 165.885 36.3342 166.035 36.1417C166.527 35.5001 167.832 33.4898 168.366 33.7678C168.559 33.8747 168.43 34.5163 168.259 35.051C168.088 35.5429 167.938 36.655 167.832 37.318C167.682 38.259 167.553 39.3283 167.703 39.9272C167.832 40.4191 168.537 40.9965 169.243 40.9965C169.457 40.9965 169.607 40.9751 169.756 40.9538C170.569 40.8682 171.21 39.6064 171.852 38.1521C171.98 37.8741 172.729 36.0989 172.857 35.7781C172.9 35.6926 172.857 35.6499 172.857 35.5643C172.857 35.5216 172.857 35.4787 172.814 35.4574C172.729 35.3504 172.601 35.3504 172.536 35.4574C172.344 35.8209 171.852 37.0827 171.681 37.4463C171.232 38.4087 170.633 39.5636 170.376 39.8844C169.842 40.526 169.435 40.248 169.435 39.3925C169.457 38.7723 169.457 38.1521 169.5 37.4891C169.5 36.9331 169.863 34.5592 169.713 33.8962C169.478 33.0407 168.73 32.7626 168.174 33.0407C167.66 33.2973 166.976 34.0031 166.634 34.495C166.441 34.7516 166.27 35.051 166.057 35.2863C165.928 35.4146 165.629 35.714 165.522 35.5215C165.415 35.3077 165.565 34.773 165.607 34.5592C165.757 33.7037 165.65 33.0621 164.859 32.7413C164.581 32.613 163.982 32.7627 163.469 33.2118C162.977 33.6181 162.464 34.2169 161.843 35.1793C161.394 35.714 161.287 35.6926 161.181 35.3932C161.159 35.1152 161.116 34.8585 161.116 34.5805C161.116 34.1742 161.223 32.5915 160.924 32.3777C160.838 32.3135 160.582 32.2494 160.496 32.2922C160.175 32.4633 159.876 32.7626 159.769 33.1262C159.641 33.5326 159.256 36.3984 159.234 36.5909C159.085 37.981 158.807 38.8151 158.999 40.5046C159.021 40.6757 159.106 40.8468 159.256 40.9538C159.405 41.0821 159.577 41.1462 159.748 41.1248Z" fill="#003750"/>
<path d="M174.392 41.1071C175.736 40.8543 176.419 38.9159 177.059 37.5042C177.08 37.4621 177.187 37.2724 177.358 37.2724C177.422 37.2724 177.486 37.3356 177.486 37.441C177.507 37.7992 177.486 38.1573 177.486 38.5155C177.486 38.7684 177.507 39.0423 177.528 39.3162C177.571 39.864 177.827 40.6226 178.382 40.8754C179.342 41.2757 180.515 40.9596 181.433 39.569C182.137 38.5155 182.948 36.1978 183.012 36.0293C183.076 35.8396 183.182 35.629 183.204 35.3972C183.204 35.3129 183.14 35.2286 183.054 35.2286C182.99 35.2075 182.969 35.2075 182.926 35.2286C182.798 35.355 182.713 35.5025 182.67 35.6921C182.244 37.1881 180.686 40.3486 179.534 40.0115C179.321 39.9483 179.15 39.7586 179.15 39.4426C179.15 38.4944 179.15 37.5463 179.171 36.6192C179.171 35.7764 179.171 34.9126 179.107 34.0698C179.107 33.8801 179.022 33.7327 178.937 33.5641C178.787 33.3745 178.531 33.3956 178.36 33.5641C178.04 33.8591 178.083 34.1751 177.976 34.8283C177.891 34.9968 177.827 35.1654 177.742 35.3129C177.507 35.7764 177.251 36.2611 176.974 36.7246C176.227 38.0942 175.779 39.274 174.947 39.9061C174.67 40.1168 174.136 40.0537 174.051 39.6112C173.731 38.1152 173.944 35.5447 175.075 33.9012C175.715 32.9952 176.398 32.6581 177.059 32.8688C177.507 32.9531 176.718 34.2805 177.251 34.2805C177.336 34.2805 177.4 34.2805 177.528 34.1541C177.742 33.7959 177.784 33.5641 177.784 33.1638C177.784 32.7213 177.528 32.342 177.102 32.2999C175.971 32.1313 174.627 32.9741 173.901 33.9855C172.408 36.0503 172.024 38.6631 172.643 40.2222C172.984 40.7911 173.709 41.2336 174.392 41.1071Z" fill="#003750"/>
<path d="M12.9238 1.26087C12.9238 1.26087 13.5491 0 19.9065 0C26.2639 0 26.8893 1.26087 26.8893 1.26087V42.4493C26.8893 42.4493 26.3682 40.9783 19.9065 40.9783C13.4449 40.9783 12.9238 42.4493 12.9238 42.4493V1.26087Z" fill="url(#paint0_linear)"/>
<ellipse cx="19.9065" cy="42.5546" rx="6.98272" ry="1.57609" fill="#AAAFB1"/>
<g opacity="0.6">
<path d="M0 21.855C0 21.855 2.08439 20.1738 10.6304 20.1738C19.1764 20.1738 21.6777 21.855 21.6777 21.855V48.7536C21.6777 48.7536 18.5511 47.7029 10.8388 47.7029C3.12659 47.7029 0 48.7536 0 48.7536V21.855Z" fill="url(#paint1_linear)"/>
<ellipse cx="10.8388" cy="48.9635" rx="10.8388" ry="1.26087" fill="#E7C5B2"/>
</g>
<g opacity="0.6">
<path d="M30.3306 53.6175C27.3111 53.6175 24.9483 53.8262 22.3607 55.1217V56.4351H38.7146V55.1217C35.0919 53.7219 33.3501 53.6175 30.3306 53.6175Z" fill="url(#paint2_linear)"/>
<path d="M30.5376 27.5293C22.3059 27.5293 15.6328 34.257 15.6328 42.5561C15.6328 47.811 18.3082 52.4359 22.3607 55.1217C24.9483 53.8262 27.3111 53.6175 30.3306 53.6175C33.3501 53.6175 35.0919 53.7219 38.7146 55.1217C42.7671 52.4359 45.4425 47.811 45.4425 42.5561C45.4425 34.257 38.7694 27.5293 30.5376 27.5293Z" fill="url(#paint3_linear)"/>
<path fill-rule="evenodd" clip-rule="evenodd" d="M22.4928 56.3777C22.8688 55.5753 26.7726 54.9996 31.2137 55.0869C35.6547 55.1741 38.9586 55.898 38.5826 56.7004C38.2065 57.5029 34.3027 58.0785 29.8617 57.9913C25.4206 57.9041 22.1257 57.1801 22.4928 56.3777Z" fill="#2D6089"/>
</g>
<defs>
<linearGradient id="paint0_linear" x1="28.4526" y1="21.4348" x2="9.27614" y2="21.4348" gradientUnits="userSpaceOnUse">
<stop stop-color="#B5BBBE"/>
<stop offset="1" stop-color="#E8EAEB"/>
</linearGradient>
<linearGradient id="paint1_linear" x1="-4.58566" y1="32.6775" x2="25.9524" y2="34.4349" gradientUnits="userSpaceOnUse">
<stop stop-color="#F5AD2A"/>
<stop offset="1" stop-color="white"/>
</linearGradient>
<linearGradient id="paint2_linear" x1="46.6903" y1="17.2322" x2="11.9144" y2="67.7182" gradientUnits="userSpaceOnUse">
<stop offset="0.0001" stop-color="#022948"/>
<stop offset="0.561068" stop-color="#9BB3BF"/>
<stop offset="0.984375" stop-color="#3D6C83"/>
</linearGradient>
<linearGradient id="paint3_linear" x1="46.6903" y1="17.2322" x2="11.9144" y2="67.7182" gradientUnits="userSpaceOnUse">
<stop offset="0.0001" stop-color="#022948"/>
<stop offset="0.561068" stop-color="#9BB3BF"/>
<stop offset="0.984375" stop-color="#3D6C83"/>
</linearGradient>
</defs>
</svg>
